<svg width="170" height="30" viewBox="0 0 170 30" fill="none" xmlns="http://www.w3.org/2000/svg">
<path d="M0 15C0 23.2709 6.72909 30 15 30C23.2709 30 30 23.2709 30 15C30 6.72909 23.2709 0 15 0C6.72909 0 0 6.72909 0 15ZM9.23077 10.3846C9.23077 10.0786 9.35233 9.78511 9.56872 9.56872C9.78511 9.35233 10.0786 9.23077 10.3846 9.23077C10.6906 9.23077 10.9841 9.35233 11.2005 9.56872C11.4169 9.78511 11.5385 10.0786 11.5385 10.3846V14.2067L19.5923 9.34183C19.7107 9.27088 19.8459 9.23275 19.9839 9.23134C20.1219 9.22993 20.2579 9.2653 20.3777 9.3338C20.4975 9.40231 20.5969 9.50149 20.6658 9.62115C20.7346 9.74081 20.7703 9.87663 20.7692 10.0147V19.9853C20.77 20.1232 20.7341 20.2589 20.6652 20.3783C20.5963 20.4978 20.4968 20.5968 20.3771 20.6651C20.2573 20.7334 20.1214 20.7687 19.9835 20.7672C19.8456 20.7657 19.7106 20.7276 19.5923 20.6567L11.5385 15.7933V19.6154C11.5385 19.9214 11.4169 20.2149 11.2005 20.4313C10.9841 20.6477 10.6906 20.7692 10.3846 20.7692C10.0786 20.7692 9.78511 20.6477 9.56872 20.4313C9.35233 20.2149 9.23077 19.9214 9.23077 19.6154V10.3846Z" fill="white"/>
<path d="M170 15C170 23.2709 163.271 30 155 30C146.729 30 140 23.2709 140 15C140 6.72909 146.729 0 155 0C163.271 0 170 6.72909 170 15ZM160.769 10.3846C160.769 10.0786 160.648 9.78511 160.431 9.56872C160.215 9.35233 159.921 9.23077 159.615 9.23077C159.309 9.23077 159.016 9.35233 158.799 9.56872C158.583 9.78511 158.462 10.0786 158.462 10.3846V14.2067L150.408 9.34183C150.289 9.27088 150.154 9.23275 150.016 9.23134C149.878 9.22993 149.742 9.2653 149.622 9.3338C149.502 9.40231 149.403 9.50149 149.334 9.62115C149.265 9.74081 149.23 9.87663 149.231 10.0147V19.9853C149.23 20.1232 149.266 20.2589 149.335 20.3783C149.404 20.4978 149.503 20.5968 149.623 20.6651C149.743 20.7334 149.879 20.7687 150.016 20.7672C150.154 20.7657 150.289 20.7276 150.408 20.6567L158.462 15.7933V19.6154C158.462 19.9214 158.583 20.2149 158.799 20.4313C159.016 20.6477 159.309 20.7692 159.615 20.7692C159.921 20.7692 160.215 20.6477 160.431 20.4313C160.648 20.2149 160.769 19.9214 160.769 19.6154V10.3846Z" fill="white"/>
<path d="M82.5002 23H80V7H82.5002V23Z" fill="white" stroke="white" stroke-linecap="round" stroke-linejoin="round"/>
<path d="M87.5 7H90.0002V23H87.5V7Z" fill="white" stroke="white" stroke-linecap="round" stroke-linejoin="round"/>
</svg>
