<svg width="38" height="34" viewBox="0 0 38 34" fill="none" xmlns="http://www.w3.org/2000/svg">
<path id="Arrow 6" d="M21.5 3C21.5 1.61929 20.3807 0.5 19 0.5C17.6193 0.5 16.5 1.61929 16.5 3L21.5 3ZM17.2322 32.7678C18.2085 33.7441 19.7915 33.7441 20.7678 32.7678L36.6777 16.8579C37.654 15.8816 37.654 14.2986 36.6777 13.3223C35.7014 12.346 34.1184 12.346 33.1421 13.3223L19 27.4645L4.85786 13.3223C3.88155 12.346 2.29864 12.346 1.32233 13.3223C0.346018 14.2986 0.346018 15.8816 1.32233 16.8579L17.2322 32.7678ZM16.5 3L16.5 31L21.5 31L21.5 3L16.5 3Z" fill="#5953F2"/>
</svg>
