<svg width="90" height="100" viewBox="0 0 90 100" fill="none" xmlns="http://www.w3.org/2000/svg">
<g id="Group 2134">
<path id="Vector" d="M42.3695 11.2451C18.9759 11.2451 0 30.221 0 53.6146C0 77.0082 18.9759 95.9841 42.3695 95.9841V66.6668C35.1406 66.6668 29.2169 60.8435 29.2169 53.5142C29.2169 46.2853 35.0402 40.3616 42.3695 40.3616V11.2451ZM7.83133 35.3415L28.9157 47.0885C28.6145 47.6909 28.3133 48.2933 28.1125 48.9961L5.12048 41.7672C5.8233 39.5584 6.72691 37.45 7.83133 35.3415ZM21.6868 20.4821L34.6386 40.8636C32.6305 42.0684 31.0241 43.6749 29.7189 45.6829L9.73896 32.1287C12.8514 27.4098 16.8675 23.4941 21.6868 20.4821Z" fill="#231009"/>
<path id="Vector_2" d="M59.5382 12.4498C50.4017 5.8233 46.0844 0 46.0844 0V46.8876C44.98 46.2852 43.7752 45.8836 42.3695 45.8836C38.3535 45.8836 35.1406 49.0964 35.1406 53.1125C35.1406 57.1285 38.3535 60.3414 42.3695 60.3414C46.3856 60.3414 49.5985 57.1285 49.5985 53.1125V18.2731C60.3414 23.2932 65.7631 34.4378 65.7631 34.4378C67.8716 27.008 68.6748 19.0763 59.5382 12.4498Z" fill="#231009"/>
<g id="Group">
<path id="Vector_3" d="M66.4683 96.6869C66.4683 98.4941 64.9623 100 63.1551 100C61.3478 100 59.8418 98.4941 59.8418 96.6869V46.1848C59.8418 44.3776 61.3478 42.8716 63.1551 42.8716C64.9623 42.8716 66.4683 44.3776 66.4683 46.1848V96.6869Z" fill="#231009"/>
<path id="Vector_4" d="M55.1226 92.1689C55.1226 93.9762 53.6166 95.4822 51.8093 95.4822C50.0021 95.4822 48.4961 93.9762 48.4961 92.1689V68.0725C48.4961 66.2653 50.0021 64.7593 51.8093 64.7593C53.6166 64.7593 55.1226 66.2653 55.1226 68.0725V92.1689Z" fill="#231009"/>
<path id="Vector_5" d="M77.9136 83.434C77.9136 85.2412 76.4076 86.7472 74.6004 86.7472C72.7931 86.7472 71.2871 85.2412 71.2871 83.434V62.7512C71.2871 60.944 72.7931 59.438 74.6004 59.438C76.4076 59.438 77.9136 60.944 77.9136 62.7512V83.434Z" fill="#231009"/>
<g id="Group_2">
<path id="Vector_6" d="M89.2593 75.8032C89.2593 77.6104 87.7533 79.1164 85.9461 79.1164C84.1388 79.1164 82.6328 77.6104 82.6328 75.8032V68.9758C82.6328 67.1686 84.1388 65.6626 85.9461 65.6626C87.7533 65.6626 89.2593 67.1686 89.2593 68.9758V75.8032Z" fill="#231009"/>
</g>
</g>
</g>
</svg>
