<svg width="345" height="286" viewBox="0 0 345 286" fill="none" xmlns="http://www.w3.org/2000/svg">
<path fill-rule="evenodd" clip-rule="evenodd" d="M272 286C350.977 286 415 221.977 415 143C415 64.0233 350.977 0 272 0C230.841 0 193.743 17.389 167.652 45.2212C153.798 60.0001 132.533 67.2361 112.304 66.1548C110.383 66.052 108.447 66 106.5 66C47.6817 66 0 113.458 0 172C0 230.542 47.6817 278 106.5 278C121.252 278 135.304 275.015 148.078 269.618C166.729 261.738 189.152 261.318 207.194 270.507C226.648 280.414 248.672 286 272 286Z" fill="#5651CB"/>
</svg>
