<svg width="367" height="251" viewBox="0 0 367 251" fill="none" xmlns="http://www.w3.org/2000/svg">
<g opacity="0.34">
<path d="M388.129 41.1358L384.203 32.5624L332.732 46.3538L320.378 0.199151L41.7228 74.8647L54.077 121.019L0.887531 135.271L1.75822 144.663L56.4694 130.004L73.1656 192.379L18.4544 207.039L22.3801 215.613L75.5812 201.358L76.1945 203.649C80.5785 219.953 91.3418 233.827 106.123 242.227C120.904 250.626 138.496 252.864 155.038 248.451L308.915 207.22C325.448 202.771 339.567 192.035 348.174 177.369C356.781 162.703 359.174 145.304 354.827 128.989L335.11 55.3298L388.129 41.1358ZM52.614 81.0438L89.6573 71.1181L89.8512 72.7726C90.8863 81.8728 88.9248 91.0815 84.2574 99.0346C79.5899 106.988 72.4647 113.262 63.9373 116.929L62.3925 117.576L52.614 81.0438ZM332.849 183.152C325.747 190.663 316.672 196.072 306.652 198.766L234.017 218.228L212.526 137.936L213.814 137.492C217.184 136.323 220.078 134.09 222.048 131.141C224.018 128.192 224.953 124.69 224.71 121.178L224.567 119.203L222.57 119.186C206.014 119.006 192.108 125.838 186.886 128.747L185.101 129.753L185.985 131.567C187.456 134.584 189.857 137.058 192.846 138.636C195.835 140.214 199.259 140.815 202.629 140.354L203.903 140.185L225.395 220.477L152.76 239.94C142.74 242.617 132.181 242.469 122.282 239.512L121.472 239.275L121.257 238.473C114.911 211.119 119.592 182.323 134.312 158.166C149.031 134.009 172.636 116.385 200.141 109.015C227.645 101.645 256.895 105.107 281.711 118.671C306.527 132.234 324.966 154.836 333.133 181.701L333.344 182.492L332.849 183.152ZM115.799 174.13C111.714 173.944 107.754 172.724 104.298 170.587C100.842 168.45 98.006 165.467 96.0623 161.925C94.1186 158.383 93.1323 154.4 93.198 150.358C93.2637 146.317 94.3793 142.352 96.4376 138.845C98.4959 135.338 101.428 132.405 104.952 130.329C108.477 128.253 112.476 127.103 116.565 126.989C120.655 126.875 124.698 127.801 128.306 129.678C131.915 131.556 134.968 134.321 137.173 137.709L137.744 138.588L137.064 139.396C128.607 149.527 121.904 160.966 117.23 173.243L116.861 174.238L115.799 174.13ZM269.994 103.716L270.021 102.702C270.174 97.0234 272.395 91.5751 276.277 87.3582C280.159 83.1413 285.44 80.4391 291.151 79.7481C296.861 79.0571 302.618 80.4237 307.362 83.5967C312.106 86.7697 315.521 91.5362 316.977 97.0203C318.297 101.985 317.941 107.25 315.963 112.02C313.984 116.79 310.492 120.805 306.014 123.456L305.121 123.978L304.337 123.329C294.355 115.137 283.074 108.621 270.939 104.04L269.994 103.716ZM346.246 131.301C349.824 144.632 348.153 158.844 341.568 171.08L340.079 173.935L338.941 170.986C333.21 156.131 324.429 142.627 313.148 131.318L311.975 130.146L313.329 129.157C317.698 125.952 321.203 121.732 323.529 116.875C325.854 112.018 326.929 106.675 326.657 101.326C326.385 95.9761 324.773 90.7862 321.968 86.2207C319.162 81.6552 315.249 77.8565 310.58 75.1648C305.911 72.473 300.63 70.9722 295.211 70.7966C289.793 70.621 284.405 71.7761 279.53 74.1586C274.655 76.541 270.446 80.0765 267.278 84.4484C264.111 88.8204 262.084 93.8924 261.38 99.2104L261.163 100.865L259.552 100.425C239.557 95.113 218.462 95.1044 198.385 100.4C178.309 105.695 159.958 116.108 145.177 130.592L144.004 131.742L143.002 130.463C139.707 126.301 135.423 123.008 130.525 120.874C125.628 118.74 120.267 117.83 114.912 118.224C109.557 118.618 104.372 120.303 99.8126 123.133C95.253 125.962 91.4576 129.849 88.7595 134.452C86.0615 139.056 84.5431 144.235 84.3377 149.535C84.1322 154.836 85.246 160.095 87.5812 164.853C89.9165 169.611 93.4018 173.722 97.7316 176.824C102.061 179.927 107.103 181.927 112.415 182.648L114.041 182.863L113.616 184.438C109.411 199.971 108.513 216.174 110.977 232.02L111.456 235.157L108.74 233.429C96.932 226.111 88.3906 214.635 84.8275 201.299L64.6818 126.035L65.8995 125.562C76.8426 121.241 86.015 113.406 91.9304 103.327C97.8458 93.2473 100.157 81.5139 98.4907 70.028L98.299 68.7534L268.357 23.1866L268.827 24.3864C273.117 35.171 280.98 44.1807 291.139 49.9537C301.299 55.7267 313.159 57.9245 324.796 56.1904L326.087 55.9917L346.246 131.301ZM323.821 47.5261L322.149 47.741C312.931 48.8275 303.626 46.9549 295.611 42.4004C287.596 37.8459 281.297 30.8516 277.647 22.453L276.988 20.923L314.043 10.9941L323.821 47.5261Z" fill="url(#paint0_linear_1_820)"/>
<path d="M388.129 41.1358L384.203 32.5624L332.732 46.3538L320.378 0.199151L41.7228 74.8647L54.077 121.019L0.887531 135.271L1.75822 144.663L56.4694 130.004L73.1656 192.379L18.4544 207.039L22.3801 215.613L75.5812 201.358L76.1945 203.649C80.5785 219.953 91.3418 233.827 106.123 242.227C120.904 250.626 138.496 252.864 155.038 248.451L308.915 207.22C325.448 202.771 339.567 192.035 348.174 177.369C356.781 162.703 359.174 145.304 354.827 128.989L335.11 55.3298L388.129 41.1358ZM52.614 81.0438L89.6573 71.1181L89.8512 72.7726C90.8863 81.8728 88.9248 91.0815 84.2574 99.0346C79.5899 106.988 72.4647 113.262 63.9373 116.929L62.3925 117.576L52.614 81.0438ZM332.849 183.152C325.747 190.663 316.672 196.072 306.652 198.766L234.017 218.228L212.526 137.936L213.814 137.492C217.184 136.323 220.078 134.09 222.048 131.141C224.018 128.192 224.953 124.69 224.71 121.178L224.567 119.203L222.57 119.186C206.014 119.006 192.108 125.838 186.886 128.747L185.101 129.753L185.985 131.567C187.456 134.584 189.857 137.058 192.846 138.636C195.835 140.214 199.259 140.815 202.629 140.354L203.903 140.185L225.395 220.477L152.76 239.94C142.74 242.617 132.181 242.469 122.282 239.512L121.472 239.275L121.257 238.473C114.911 211.119 119.592 182.323 134.312 158.166C149.031 134.009 172.636 116.385 200.141 109.015C227.645 101.645 256.895 105.107 281.711 118.671C306.527 132.234 324.966 154.836 333.133 181.701L333.344 182.492L332.849 183.152ZM115.799 174.13C111.714 173.944 107.754 172.724 104.298 170.587C100.842 168.45 98.006 165.467 96.0623 161.925C94.1186 158.383 93.1323 154.4 93.198 150.358C93.2637 146.317 94.3793 142.352 96.4376 138.845C98.4959 135.338 101.428 132.405 104.952 130.329C108.477 128.253 112.476 127.103 116.565 126.989C120.655 126.875 124.698 127.801 128.306 129.678C131.915 131.556 134.968 134.321 137.173 137.709L137.744 138.588L137.064 139.396C128.607 149.527 121.904 160.966 117.23 173.243L116.861 174.238L115.799 174.13ZM269.994 103.716L270.021 102.702C270.174 97.0234 272.395 91.5751 276.277 87.3582C280.159 83.1413 285.44 80.4391 291.151 79.7481C296.861 79.0571 302.618 80.4237 307.362 83.5967C312.106 86.7697 315.521 91.5362 316.977 97.0203C318.297 101.985 317.941 107.25 315.963 112.02C313.984 116.79 310.492 120.805 306.014 123.456L305.121 123.978L304.337 123.329C294.355 115.137 283.074 108.621 270.939 104.04L269.994 103.716ZM346.246 131.301C349.824 144.632 348.153 158.844 341.568 171.08L340.079 173.935L338.941 170.986C333.21 156.131 324.429 142.627 313.148 131.318L311.975 130.146L313.329 129.157C317.698 125.952 321.203 121.732 323.529 116.875C325.854 112.018 326.929 106.675 326.657 101.326C326.385 95.9761 324.773 90.7862 321.968 86.2207C319.162 81.6552 315.249 77.8565 310.58 75.1648C305.911 72.473 300.63 70.9722 295.211 70.7966C289.793 70.621 284.405 71.7761 279.53 74.1586C274.655 76.541 270.446 80.0765 267.278 84.4484C264.111 88.8204 262.084 93.8924 261.38 99.2104L261.163 100.865L259.552 100.425C239.557 95.113 218.462 95.1044 198.385 100.4C178.309 105.695 159.958 116.108 145.177 130.592L144.004 131.742L143.002 130.463C139.707 126.301 135.423 123.008 130.525 120.874C125.628 118.74 120.267 117.83 114.912 118.224C109.557 118.618 104.372 120.303 99.8126 123.133C95.253 125.962 91.4576 129.849 88.7595 134.452C86.0615 139.056 84.5431 144.235 84.3377 149.535C84.1322 154.836 85.246 160.095 87.5812 164.853C89.9165 169.611 93.4018 173.722 97.7316 176.824C102.061 179.927 107.103 181.927 112.415 182.648L114.041 182.863L113.616 184.438C109.411 199.971 108.513 216.174 110.977 232.02L111.456 235.157L108.74 233.429C96.932 226.111 88.3906 214.635 84.8275 201.299L64.6818 126.035L65.8995 125.562C76.8426 121.241 86.015 113.406 91.9304 103.327C97.8458 93.2473 100.157 81.5139 98.4907 70.028L98.299 68.7534L268.357 23.1866L268.827 24.3864C273.117 35.171 280.98 44.1807 291.139 49.9537C301.299 55.7267 313.159 57.9245 324.796 56.1904L326.087 55.9917L346.246 131.301ZM323.821 47.5261L322.149 47.741C312.931 48.8275 303.626 46.9549 295.611 42.4004C287.596 37.8459 281.297 30.8516 277.647 22.453L276.988 20.923L314.043 10.9941L323.821 47.5261Z" fill="white"/>
</g>
<defs>
<linearGradient id="paint0_linear_1_820" x1="94.6009" y1="234.37" x2="311.849" y2="-3.33312" gradientUnits="userSpaceOnUse">
<stop stop-color="#DC9327"/>
<stop offset="0.04" stop-color="#E8B744"/>
<stop offset="0.08" stop-color="#F2D35B"/>
<stop offset="0.12" stop-color="#F9E76B"/>
<stop offset="0.16" stop-color="#FEF375"/>
<stop offset="0.2" stop-color="#FFF778"/>
<stop offset="0.28" stop-color="#EAC34A"/>
<stop offset="0.34" stop-color="#D99A26"/>
<stop offset="0.36" stop-color="#CB8E24"/>
<stop offset="0.4" stop-color="#B77E21"/>
<stop offset="0.43" stop-color="#AB741F"/>
<stop offset="0.47" stop-color="#A7711E"/>
<stop offset="0.51" stop-color="#AB7622"/>
<stop offset="0.56" stop-color="#B8852E"/>
<stop offset="0.61" stop-color="#CD9E42"/>
<stop offset="0.66" stop-color="#EBC15E"/>
<stop offset="0.68" stop-color="#F6CE69"/>
<stop offset="0.72" stop-color="#F3C962"/>
<stop offset="0.78" stop-color="#EBBA4F"/>
<stop offset="0.85" stop-color="#DEA231"/>
<stop offset="0.87" stop-color="#D99A26"/>
<stop offset="1" stop-color="#F6CE69"/>
</linearGradient>
</defs>
</svg>
