<svg width="40" height="40" viewBox="0 0 40 40" fill="none" xmlns="http://www.w3.org/2000/svg">
<g id="Group 1000003077">
<path id="XMLID_22_" d="M20 40C31.0457 40 40 31.0457 40 20C40 8.9543 31.0457 0 20 0C8.9543 0 0 8.9543 0 20C0 31.0457 8.9543 40 20 40Z" fill="#3E5C9A"/>
<path id="XMLID_18_" d="M20.0412 10.0183C22.3045 10.0183 24.5267 10.0183 26.7901 10.0183C27.0782 10.0183 27.3251 10.0183 27.6132 10.0594C28.7654 10.1827 29.7119 11.0461 29.9177 12.1974C29.9588 12.4852 30 12.8141 30 13.1019C30 17.7478 30 22.3527 30 26.9986C30 27.2864 29.9588 27.6153 29.9177 27.9032C29.7119 28.9721 28.8066 29.7944 27.7366 29.9589C27.5309 30 27.284 30 27.0782 30C25.9671 30 24.8971 30 23.786 30C23.6626 30 23.4979 30 23.3745 30C23.1687 30 23.0453 29.9178 23.0453 29.7122C23.0453 29.5889 23.0453 29.4244 23.0453 29.3011C23.0453 27.4509 23.0453 25.5596 23.0453 23.7095C23.0453 23.5861 23.0453 23.5039 23.0453 23.3805C23.0864 23.0105 23.1276 22.9283 23.4979 22.9283C23.9506 22.9283 24.3621 22.9283 24.8148 22.9283C25.0206 22.9283 25.1852 22.9283 25.3909 22.9283C25.7202 22.8872 25.9259 22.7638 25.9671 22.4349C26.0905 21.736 26.1728 21.037 26.214 20.2969C26.2551 19.968 26.0494 19.7213 25.679 19.7213C25.144 19.6802 24.5679 19.6802 24.0329 19.6802C22.963 19.6802 23.0453 19.7213 23.0453 18.6935C23.0453 18.2412 23.0041 17.8301 23.0864 17.3778C23.2099 16.72 23.4568 16.4733 24.1152 16.391C24.4033 16.3499 24.7325 16.3499 25.0206 16.3499C25.2263 16.3499 25.4733 16.3499 25.679 16.3088C25.9259 16.2677 26.0905 16.1032 26.1317 15.8566C26.214 15.1987 26.214 14.5409 26.1317 13.8831C26.1317 13.7186 25.9671 13.5952 25.8025 13.513C25.7613 13.4719 25.679 13.4719 25.6379 13.4719C24.6502 13.4719 23.6626 13.3486 22.6749 13.5952C21.1934 13.9653 20.2881 14.9109 20 16.391C19.8765 16.8844 19.8765 17.4189 19.8765 17.9534C19.8765 18.4057 19.8765 18.899 19.8765 19.3513C19.8765 19.5569 19.7531 19.6391 19.5473 19.6802C19.3004 19.6802 19.0535 19.6802 18.8066 19.6802C18.5597 19.6802 18.3128 19.6802 18.0658 19.7213C17.8189 19.7624 17.6955 19.9269 17.6132 20.1325C17.572 20.2147 17.572 20.2969 17.572 20.3792C17.572 20.9959 17.572 21.5715 17.572 22.1882C17.572 22.6816 17.7778 22.8872 18.2716 22.8872C18.5597 22.8872 18.8066 22.8872 19.0947 22.8872C19.8354 22.8872 19.8354 22.8872 19.8354 23.6683C19.8354 25.5185 19.8354 27.3275 19.8354 29.1777C19.8354 29.3011 19.8354 29.3833 19.8354 29.5066C19.8354 29.9178 19.7531 29.9589 19.3416 29.9589C19.177 29.9589 19.0123 29.9589 18.8477 29.9589C16.9959 29.9589 15.1029 29.9589 13.251 29.9589C13.0453 29.9589 12.7984 29.9589 12.5926 29.9589C11.1523 29.8767 10.0823 28.8488 10 27.3687C10 27.1631 10 26.9164 10 26.7108C10 22.2293 10 17.7067 10 13.2252C10 12.773 10 12.3618 10.1235 11.9095C10.4527 10.8406 11.3169 10.1005 12.4691 10.0183C12.7572 9.97716 13.0041 10.0183 13.2922 10.0183C15.5144 10.0183 17.7778 10.0183 20.0412 10.0183Z" fill="white"/>
</g>
</svg>
