<svg width="22" height="21" viewBox="0 0 22 21" fill="none" xmlns="http://www.w3.org/2000/svg">
<g id="icon">
<path id="Vector 282 (Stroke)" fill-rule="evenodd" clip-rule="evenodd" d="M17.8725 3.8711L5.41903 13.9896V17.1989L6.68386 15.3416C6.96297 14.9317 7.53218 14.8468 7.91875 15.1573L10.1176 16.9237L17.8725 3.8711ZM19.7602 0.404708C20.497 -0.193959 21.5118 0.682375 21.0269 1.49857L11.0248 18.3334C10.7608 18.7777 10.1647 18.8855 9.76173 18.5619L7.52774 16.7673L5.47159 19.7866C5.00064 20.4781 3.91903 20.1448 3.91903 19.3081V13.6802C3.91903 13.4242 4.03437 13.1819 4.23303 13.0205L19.7602 0.404708Z" fill="white"/>
<path id="Vector 281 (Stroke)" fill-rule="evenodd" clip-rule="evenodd" d="M16.2228 3.53516L2.02756 10.1596L4.9715 12.7407L16.2228 3.53516ZM6.12211 13.7374L10.4606 17.4634L17.871 4.1247L6.12211 13.7374ZM20.7067 1.44265C20.706 1.44296 20.7054 1.44327 20.7047 1.44357L20.7067 1.44265ZM20.0724 0.0833778C20.819 -0.265051 21.575 0.546143 21.1749 1.26643L11.3845 18.8891C11.1224 19.3609 10.4926 19.4722 10.0847 19.1187L9.98703 19.034L9.98447 19.0318L4.46027 14.2875L0.289797 10.6309C-0.171633 10.2263 -0.0654123 9.48101 0.490712 9.22149L20.0724 0.0833778Z" fill="white"/>
</g>
</svg>
