<svg width="8" height="11" viewBox="0 0 8 11" fill="none" xmlns="http://www.w3.org/2000/svg">
<g id="Mask group">
<mask id="mask0_1_1464" style="mask-type:alpha" maskUnits="userSpaceOnUse" x="0" y="0" width="8" height="11">
<g id="icon">
<path id="Rectangle 147 (Stroke)" fill-rule="evenodd" clip-rule="evenodd" d="M0 0.872391C0 0.390583 0.390583 0 0.872391 0H6.8545C7.33631 0 7.72689 0.390583 7.72689 0.872391V9.81883C7.72689 10.3442 7.11668 10.6338 6.7097 10.3016L5.60823 9.40239L4.2575 10.505C4.02816 10.6922 3.69874 10.6922 3.46939 10.505L2.11866 9.40239L1.01719 10.3016C0.610211 10.6338 0 10.3442 0 9.81883V0.872391ZM0.872391 0.747764C0.803561 0.747764 0.747764 0.803561 0.747764 0.872391V9.55622L1.72461 8.75879C1.95396 8.57157 2.28337 8.57157 2.51272 8.75879L3.86345 9.86143L5.21417 8.75879C5.44352 8.57157 5.77294 8.57157 6.00229 8.75879L6.97913 9.55622V0.872391C6.97913 0.803562 6.92333 0.747764 6.8545 0.747764H0.872391Z" fill="white"/>
<path id="Vector 354 (Stroke)" fill-rule="evenodd" clip-rule="evenodd" d="M1.49553 3.36509C1.49553 3.1586 1.66292 2.99121 1.86941 2.99121H5.85748C6.06397 2.99121 6.23137 3.1586 6.23137 3.36509C6.23137 3.57158 6.06397 3.73897 5.85748 3.73897H1.86941C1.66292 3.73897 1.49553 3.57158 1.49553 3.36509Z" fill="white"/>
<path id="Vector 356 (Stroke)" fill-rule="evenodd" clip-rule="evenodd" d="M1.49553 4.8607C1.49553 4.65421 1.66292 4.48682 1.86941 4.48682H5.85748C6.06397 4.48682 6.23137 4.65421 6.23137 4.8607C6.23137 5.06719 6.06397 5.23458 5.85748 5.23458H1.86941C1.66292 5.23458 1.49553 5.06719 1.49553 4.8607Z" fill="white"/>
<path id="Vector 357 (Stroke)" fill-rule="evenodd" clip-rule="evenodd" d="M1.49553 6.35582C1.49553 6.14933 1.66292 5.98193 1.86941 5.98193H5.85748C6.06397 5.98193 6.23137 6.14933 6.23137 6.35582C6.23137 6.5623 6.06397 6.7297 5.85748 6.7297H1.86941C1.66292 6.7297 1.49553 6.5623 1.49553 6.35582Z" fill="white"/>
</g>
</mask>
<g mask="url(#mask0_1_1464)">
<g id="icon_2">
<path id="Rectangle 147 (Stroke)_2" fill-rule="evenodd" clip-rule="evenodd" d="M0 0.872391C0 0.390583 0.390583 0 0.872391 0H6.8545C7.33631 0 7.72689 0.390583 7.72689 0.872391V9.81883C7.72689 10.3442 7.11668 10.6338 6.7097 10.3016L5.60823 9.40239L4.2575 10.505C4.02816 10.6922 3.69874 10.6922 3.46939 10.505L2.11866 9.40239L1.01719 10.3016C0.610211 10.6338 0 10.3442 0 9.81883V0.872391ZM0.872391 0.747764C0.803561 0.747764 0.747764 0.803561 0.747764 0.872391V9.55622L1.72461 8.75879C1.95396 8.57157 2.28337 8.57157 2.51272 8.75879L3.86345 9.86143L5.21417 8.75879C5.44352 8.57157 5.77294 8.57157 6.00229 8.75879L6.97913 9.55622V0.872391C6.97913 0.803562 6.92333 0.747764 6.8545 0.747764H0.872391Z" fill="#0D0D0D" fill-opacity="0.4"/>
<path id="Vector 354 (Stroke)_2" fill-rule="evenodd" clip-rule="evenodd" d="M1.49553 3.36509C1.49553 3.1586 1.66292 2.99121 1.86941 2.99121H5.85748C6.06397 2.99121 6.23137 3.1586 6.23137 3.36509C6.23137 3.57158 6.06397 3.73897 5.85748 3.73897H1.86941C1.66292 3.73897 1.49553 3.57158 1.49553 3.36509Z" fill="#0D0D0D" fill-opacity="0.4"/>
<path id="Vector 356 (Stroke)_2" fill-rule="evenodd" clip-rule="evenodd" d="M1.49553 4.8607C1.49553 4.65421 1.66292 4.48682 1.86941 4.48682H5.85748C6.06397 4.48682 6.23137 4.65421 6.23137 4.8607C6.23137 5.06719 6.06397 5.23458 5.85748 5.23458H1.86941C1.66292 5.23458 1.49553 5.06719 1.49553 4.8607Z" fill="#0D0D0D" fill-opacity="0.4"/>
<path id="Vector 357 (Stroke)_2" fill-rule="evenodd" clip-rule="evenodd" d="M1.49553 6.35582C1.49553 6.14933 1.66292 5.98193 1.86941 5.98193H5.85748C6.06397 5.98193 6.23137 6.14933 6.23137 6.35582C6.23137 6.5623 6.06397 6.7297 5.85748 6.7297H1.86941C1.66292 6.7297 1.49553 6.5623 1.49553 6.35582Z" fill="#0D0D0D" fill-opacity="0.4"/>
</g>
</g>
</g>
</svg>
