<svg width="9" height="31" viewBox="0 0 9 31" fill="none" xmlns="http://www.w3.org/2000/svg">
<g id="Mask group">
<g id="Mask group_2">
<mask id="mask0_1_1394" style="mask-type:alpha" maskUnits="userSpaceOnUse" x="0" y="0" width="9" height="10">
<g id="icon">
<path id="Vector 397 (Stroke)" fill-rule="evenodd" clip-rule="evenodd" d="M2.66949 21.5765C2.61733 21.394 2.42708 21.2883 2.24455 21.3405C1.32228 21.604 -0.245812 22.8477 0.0327744 25.6335C0.0516641 25.8224 0.220107 25.9602 0.409003 25.9414C0.597898 25.9225 0.735716 25.754 0.716826 25.5651C0.471632 23.1132 1.82798 22.1745 2.43341 22.0015C2.61594 21.9493 2.72164 21.7591 2.66949 21.5765Z" fill="white"/>
<path id="Vector 398 (Stroke)" fill-rule="evenodd" clip-rule="evenodd" d="M4.76049 23.4526C5.14392 23.6861 5.46128 24.1039 5.60552 24.6978C5.65032 24.8823 5.83619 24.9955 6.02067 24.9507C6.20514 24.9059 6.31837 24.72 6.27357 24.5355C6.09138 23.7854 5.67474 23.2045 5.11806 22.8654C4.56046 22.5259 3.88435 22.4431 3.21789 22.6518C2.5606 22.8577 2.12531 23.3219 1.86182 23.9101C1.60273 24.4886 1.50505 25.1937 1.50505 25.9261C1.50505 26.4049 1.46879 26.6934 1.34156 26.9616C1.21142 27.236 0.968506 27.5256 0.474825 27.9595C0.332227 28.0848 0.318219 28.302 0.443536 28.4446C0.568853 28.5872 0.78604 28.6012 0.928638 28.4759C1.43996 28.0265 1.77057 27.6613 1.9627 27.2562C2.15775 26.845 2.19251 26.4293 2.19251 25.9261C2.19251 25.2438 2.28517 24.6467 2.48922 24.1912C2.68886 23.7455 2.9895 23.4438 3.42339 23.3079C3.90785 23.1561 4.37797 23.2197 4.76049 23.4526Z" fill="white"/>
<path id="Vector 399 (Stroke)" fill-rule="evenodd" clip-rule="evenodd" d="M3.52682 27.9428C3.37495 27.8289 3.1595 27.8597 3.04559 28.0115C2.89364 28.2141 2.61321 28.5417 2.27835 28.848C1.93768 29.1597 1.57144 29.4206 1.2477 29.5285C1.0676 29.5885 0.970273 29.7832 1.03031 29.9633C1.09034 30.1434 1.285 30.2407 1.4651 30.1807C1.92703 30.0267 2.37919 29.6875 2.74235 29.3553C3.11133 29.0178 3.42015 28.6579 3.59556 28.424C3.70947 28.2721 3.67869 28.0567 3.52682 27.9428Z" fill="white"/>
<path id="Vector 400 (Stroke)" fill-rule="evenodd" clip-rule="evenodd" d="M6.10482 25.5835C5.91498 25.5835 5.76108 25.7374 5.76108 25.9272C5.76108 27.4499 4.83683 29.2989 3.30906 30.2156C3.14628 30.3132 3.09349 30.5244 3.19116 30.6872C3.28883 30.8499 3.49997 30.9027 3.66276 30.8051C5.40862 29.7575 6.44855 27.6782 6.44855 25.9272C6.44855 25.7374 6.29465 25.5835 6.10482 25.5835Z" fill="white"/>
<path id="Vector 401 (Stroke)" fill-rule="evenodd" clip-rule="evenodd" d="M3.63331 21.3193C3.61978 21.5086 3.76232 21.6731 3.95168 21.6866C5.02948 21.7636 5.8088 22.1257 6.35102 22.6497C6.89567 23.1761 7.22657 23.8906 7.36051 24.7135C7.6301 26.3698 7.08959 28.4087 5.98584 29.9854C5.87698 30.1409 5.9148 30.3552 6.07032 30.4641C6.22584 30.573 6.44016 30.5352 6.54903 30.3796C7.73689 28.6827 8.34224 26.4659 8.03904 24.6031C7.88659 23.6664 7.50143 22.8055 6.82875 22.1554C6.15364 21.5029 5.21435 21.0876 4.00066 21.0009C3.8113 20.9874 3.64683 21.1299 3.63331 21.3193Z" fill="white"/>
<path id="Vector 402 (Stroke)" fill-rule="evenodd" clip-rule="evenodd" d="M3.89193 24.2838C3.70776 24.3298 3.59579 24.5164 3.64183 24.7006C3.74979 25.1324 3.94284 25.9196 3.64917 26.8C3.5891 26.9801 3.6864 27.1748 3.86648 27.2349C4.04657 27.2949 4.24125 27.1976 4.30131 27.0176C4.66052 25.9406 4.42206 24.9869 4.31084 24.5422C4.31014 24.5394 4.30945 24.5366 4.30877 24.5339C4.26273 24.3497 4.0761 24.2377 3.89193 24.2838Z" fill="white"/>
</g>
</mask>
<g mask="url(#mask0_1_1394)">
<g id="icon_2">
<path id="Vector 397 (Stroke)_2" fill-rule="evenodd" clip-rule="evenodd" d="M2.66949 21.5765C2.61733 21.394 2.42708 21.2883 2.24455 21.3405C1.32228 21.604 -0.245812 22.8477 0.0327744 25.6335C0.0516641 25.8224 0.220107 25.9602 0.409003 25.9414C0.597898 25.9225 0.735716 25.754 0.716826 25.5651C0.471632 23.1132 1.82798 22.1745 2.43341 22.0015C2.61594 21.9493 2.72164 21.7591 2.66949 21.5765Z" fill="#0D0D0D" fill-opacity="0.4"/>
<path id="Vector 398 (Stroke)_2" fill-rule="evenodd" clip-rule="evenodd" d="M4.76049 23.4526C5.14392 23.6861 5.46128 24.1039 5.60552 24.6978C5.65032 24.8823 5.83619 24.9955 6.02067 24.9507C6.20514 24.9059 6.31837 24.72 6.27357 24.5355C6.09138 23.7854 5.67474 23.2045 5.11806 22.8654C4.56046 22.5259 3.88435 22.4431 3.21789 22.6518C2.5606 22.8577 2.12531 23.3219 1.86182 23.9101C1.60273 24.4886 1.50505 25.1937 1.50505 25.9261C1.50505 26.4049 1.46879 26.6934 1.34156 26.9616C1.21142 27.236 0.968506 27.5256 0.474825 27.9595C0.332227 28.0848 0.318219 28.302 0.443536 28.4446C0.568853 28.5872 0.78604 28.6012 0.928638 28.4759C1.43996 28.0265 1.77057 27.6613 1.9627 27.2562C2.15775 26.845 2.19251 26.4293 2.19251 25.9261C2.19251 25.2438 2.28517 24.6467 2.48922 24.1912C2.68886 23.7455 2.9895 23.4438 3.42339 23.3079C3.90785 23.1561 4.37797 23.2197 4.76049 23.4526Z" fill="#0D0D0D" fill-opacity="0.4"/>
<path id="Vector 399 (Stroke)_2" fill-rule="evenodd" clip-rule="evenodd" d="M3.52682 27.9428C3.37495 27.8289 3.1595 27.8597 3.04559 28.0115C2.89364 28.2141 2.61321 28.5417 2.27835 28.848C1.93768 29.1597 1.57144 29.4206 1.2477 29.5285C1.0676 29.5885 0.970273 29.7832 1.03031 29.9633C1.09034 30.1434 1.285 30.2407 1.4651 30.1807C1.92703 30.0267 2.37919 29.6875 2.74235 29.3553C3.11133 29.0178 3.42015 28.6579 3.59556 28.424C3.70947 28.2721 3.67869 28.0567 3.52682 27.9428Z" fill="#0D0D0D" fill-opacity="0.4"/>
<path id="Vector 400 (Stroke)_2" fill-rule="evenodd" clip-rule="evenodd" d="M6.10482 25.5835C5.91498 25.5835 5.76108 25.7374 5.76108 25.9272C5.76108 27.4499 4.83683 29.2989 3.30906 30.2156C3.14628 30.3132 3.09349 30.5244 3.19116 30.6872C3.28883 30.8499 3.49997 30.9027 3.66276 30.8051C5.40862 29.7575 6.44855 27.6782 6.44855 25.9272C6.44855 25.7374 6.29465 25.5835 6.10482 25.5835Z" fill="#0D0D0D" fill-opacity="0.4"/>
<path id="Vector 401 (Stroke)_2" fill-rule="evenodd" clip-rule="evenodd" d="M3.63331 21.3193C3.61978 21.5086 3.76232 21.6731 3.95168 21.6866C5.02948 21.7636 5.8088 22.1257 6.35102 22.6497C6.89567 23.1761 7.22657 23.8906 7.36051 24.7135C7.6301 26.3698 7.08959 28.4087 5.98584 29.9854C5.87698 30.1409 5.9148 30.3552 6.07032 30.4641C6.22584 30.573 6.44016 30.5352 6.54903 30.3796C7.73689 28.6827 8.34224 26.4659 8.03904 24.6031C7.88659 23.6664 7.50143 22.8055 6.82875 22.1554C6.15364 21.5029 5.21435 21.0876 4.00066 21.0009C3.8113 20.9874 3.64683 21.1299 3.63331 21.3193Z" fill="#0D0D0D" fill-opacity="0.4"/>
<path id="Vector 402 (Stroke)_2" fill-rule="evenodd" clip-rule="evenodd" d="M3.89193 24.2838C3.70776 24.3298 3.59579 24.5164 3.64183 24.7006C3.74979 25.1324 3.94284 25.9196 3.64917 26.8C3.5891 26.9801 3.6864 27.1748 3.86648 27.2349C4.04657 27.2949 4.24125 27.1976 4.30131 27.0176C4.66052 25.9406 4.42206 24.9869 4.31084 24.5422C4.31014 24.5394 4.30945 24.5366 4.30877 24.5339C4.26273 24.3497 4.0761 24.2377 3.89193 24.2838Z" fill="#0D0D0D" fill-opacity="0.4"/>
</g>
</g>
</g>
<mask id="mask1_1_1394" style="mask-type:alpha" maskUnits="userSpaceOnUse" x="0" y="0" width="8" height="9">
<g id="icon_3">
<path id="Rectangle 148 (Stroke)" fill-rule="evenodd" clip-rule="evenodd" d="M1.1283 0.615385C0.845074 0.615385 0.615476 0.844982 0.615476 1.12821V7.69231C0.615476 7.97553 0.845074 8.20513 1.1283 8.20513H6.87189C7.15511 8.20513 7.38471 7.97553 7.38471 7.69231V2.89668L5.10341 0.615385H1.1283ZM9.15527e-05 1.12821C9.15527e-05 0.505115 0.505206 0 1.1283 0H5.14589C5.2819 0 5.41234 0.0540292 5.50851 0.150202L7.84989 2.49158C7.94606 2.58775 8.00009 2.71819 8.00009 2.8542V7.69231C8.00009 8.3154 7.49498 8.82051 6.87189 8.82051H1.1283C0.505206 8.82051 9.15527e-05 8.3154 9.15527e-05 7.69231V1.12821Z" fill="white"/>
<path id="Vector 358 (Stroke)" fill-rule="evenodd" clip-rule="evenodd" d="M4.92317 0.407034C4.92317 0.0963594 5.29879 -0.0592265 5.51847 0.160453L7.83994 2.48192C8.05962 2.7016 7.90403 3.07722 7.59336 3.07722H5.27189C5.0793 3.07722 4.92317 2.92109 4.92317 2.7285V0.407034ZM5.53856 1.05082V2.46184H6.94957L5.53856 1.05082Z" fill="white"/>
<path id="Vector 359 (Stroke)" fill-rule="evenodd" clip-rule="evenodd" d="M2.05138 5.23054C2.05138 5.06061 2.18913 4.92285 2.35907 4.92285H5.64112C5.81105 4.92285 5.94881 5.06061 5.94881 5.23054C5.94881 5.40048 5.81105 5.53824 5.64112 5.53824H2.35907C2.18913 5.53824 2.05138 5.40048 2.05138 5.23054Z" fill="white"/>
</g>
</mask>
<g mask="url(#mask1_1_1394)">
<g id="icon_4">
<path id="Rectangle 148 (Stroke)_2" fill-rule="evenodd" clip-rule="evenodd" d="M1.1283 0.615385C0.845074 0.615385 0.615476 0.844982 0.615476 1.12821V7.69231C0.615476 7.97553 0.845074 8.20513 1.1283 8.20513H6.87189C7.15511 8.20513 7.38471 7.97553 7.38471 7.69231V2.89668L5.10341 0.615385H1.1283ZM9.15527e-05 1.12821C9.15527e-05 0.505115 0.505206 0 1.1283 0H5.14589C5.2819 0 5.41234 0.0540292 5.50851 0.150202L7.84989 2.49158C7.94606 2.58775 8.00009 2.71819 8.00009 2.8542V7.69231C8.00009 8.3154 7.49498 8.82051 6.87189 8.82051H1.1283C0.505206 8.82051 9.15527e-05 8.3154 9.15527e-05 7.69231V1.12821Z" fill="#0D0D0D" fill-opacity="0.4"/>
<path id="Vector 358 (Stroke)_2" fill-rule="evenodd" clip-rule="evenodd" d="M4.92317 0.407034C4.92317 0.0963594 5.29879 -0.0592265 5.51847 0.160453L7.83994 2.48192C8.05962 2.7016 7.90403 3.07722 7.59336 3.07722H5.27189C5.0793 3.07722 4.92317 2.92109 4.92317 2.7285V0.407034ZM5.53856 1.05082V2.46184H6.94957L5.53856 1.05082Z" fill="#0D0D0D" fill-opacity="0.4"/>
<path id="Vector 359 (Stroke)_2" fill-rule="evenodd" clip-rule="evenodd" d="M2.05138 5.23054C2.05138 5.06061 2.18913 4.92285 2.35907 4.92285H5.64112C5.81105 4.92285 5.94881 5.06061 5.94881 5.23054C5.94881 5.40048 5.81105 5.53824 5.64112 5.53824H2.35907C2.18913 5.53824 2.05138 5.40048 2.05138 5.23054Z" fill="#0D0D0D" fill-opacity="0.4"/>
</g>
</g>
</g>
</svg>
