<svg width="90" height="100" viewBox="0 0 90 100" fill="none" xmlns="http://www.w3.org/2000/svg">
<g id="Group 2134">
<path id="Vector" d="M42.3695 11.245C18.9759 11.245 0 30.2209 0 53.6145C0 77.0081 18.9759 95.984 42.3695 95.984V66.6667C35.1406 66.6667 29.2169 60.8434 29.2169 53.5141C29.2169 46.2852 35.0402 40.3615 42.3695 40.3615V11.245ZM7.83133 35.3414L28.9157 47.0884C28.6145 47.6908 28.3133 48.2932 28.1125 48.996L5.12048 41.7671C5.8233 39.5583 6.72691 37.4498 7.83133 35.3414ZM21.6868 20.4819L34.6386 40.8635C32.6305 42.0683 31.0241 43.6747 29.7189 45.6828L9.73896 32.1285C12.8514 27.4097 16.8675 23.494 21.6868 20.4819Z" fill="white"/>
<path id="Vector_2" d="M59.5382 12.4498C50.4017 5.8233 46.0844 0 46.0844 0V46.8876C44.98 46.2852 43.7752 45.8836 42.3695 45.8836C38.3535 45.8836 35.1406 49.0964 35.1406 53.1125C35.1406 57.1285 38.3535 60.3414 42.3695 60.3414C46.3856 60.3414 49.5985 57.1285 49.5985 53.1125V18.2731C60.3414 23.2932 65.7631 34.4378 65.7631 34.4378C67.8716 27.008 68.6748 19.0763 59.5382 12.4498Z" fill="white"/>
<g id="Group">
<path id="Vector_3" d="M66.4683 96.6868C66.4683 98.494 64.9623 100 63.1551 100C61.3478 100 59.8418 98.494 59.8418 96.6868V46.1847C59.8418 44.3775 61.3478 42.8715 63.1551 42.8715C64.9623 42.8715 66.4683 44.3775 66.4683 46.1847V96.6868Z" fill="white"/>
<path id="Vector_4" d="M55.1226 92.1687C55.1226 93.9759 53.6166 95.4819 51.8093 95.4819C50.0021 95.4819 48.4961 93.9759 48.4961 92.1687V68.0723C48.4961 66.2651 50.0021 64.759 51.8093 64.759C53.6166 64.759 55.1226 66.2651 55.1226 68.0723V92.1687Z" fill="white"/>
<path id="Vector_5" d="M77.9136 83.4337C77.9136 85.241 76.4076 86.747 74.6004 86.747C72.7931 86.747 71.2871 85.241 71.2871 83.4337V62.751C71.2871 60.9438 72.7931 59.4377 74.6004 59.4377C76.4076 59.4377 77.9136 60.9438 77.9136 62.751V83.4337Z" fill="white"/>
<g id="Group_2">
<path id="Vector_6" d="M89.2593 75.8032C89.2593 77.6104 87.7533 79.1164 85.9461 79.1164C84.1388 79.1164 82.6328 77.6104 82.6328 75.8032V68.9758C82.6328 67.1686 84.1388 65.6626 85.9461 65.6626C87.7533 65.6626 89.2593 67.1686 89.2593 68.9758V75.8032Z" fill="white"/>
</g>
</g>
</g>
</svg>
