<svg width="73" height="17" viewBox="0 0 73 17" fill="none" xmlns="http://www.w3.org/2000/svg">
<g id="&#208;&#184;&#208;&#186;&#208;&#190;&#208;&#189;&#208;&#186;&#208;&#184;">
<g id="icon" opacity="0.48">
<path id="Rectangle 153 (Stroke)" fill-rule="evenodd" clip-rule="evenodd" d="M31.4046 5.36576C31.512 3.82916 32.841 2.67033 34.3728 2.77745L40.7962 3.22662C42.3281 3.33374 43.4828 4.66624 43.3753 6.20284L43.1501 9.42442C43.0426 10.961 41.7137 12.1198 40.1818 12.0127L38.0015 11.8603L34.0893 14.618C33.476 15.0504 32.6885 14.3883 33.0059 13.7071L33.9967 11.5802L33.7585 11.5636C32.2266 11.4564 31.0718 10.1239 31.1793 8.58734L31.4046 5.36576ZM34.3114 3.65606C33.2633 3.58277 32.354 4.37565 32.2805 5.42701L32.0552 8.64859C31.9817 9.69995 32.7718 10.6117 33.8199 10.685L34.2707 10.7165C34.7829 10.7523 35.0998 11.2924 34.8824 11.7591L34.0337 13.581L37.5394 11.1098C37.6769 11.0128 37.8435 10.9663 38.0111 10.978L40.2432 11.1341C41.2914 11.2074 42.2006 10.4145 42.2742 9.36317L42.4994 6.14159C42.5729 5.09023 41.7829 4.17852 40.7347 4.10523L34.3114 3.65606Z" fill="#5A54F2"/>
<path id="Vector 385 (Stroke)" fill-rule="evenodd" clip-rule="evenodd" d="M34.1252 8.41562C34.1421 8.173 34.352 7.99003 34.5938 8.00694L39.8493 8.37444C40.0912 8.39135 40.2735 8.60175 40.2565 8.84437C40.2396 9.08699 40.0297 9.26997 39.7879 9.25305L34.5324 8.88555C34.2905 8.86864 34.1082 8.65825 34.1252 8.41562Z" fill="#5A54F2"/>
<path id="Vector 386 (Stroke)" fill-rule="evenodd" clip-rule="evenodd" d="M34.2633 6.44883C34.2803 6.20621 34.4901 6.02323 34.732 6.04015L37.3598 6.2239C37.6016 6.24081 37.784 6.4512 37.767 6.69383C37.75 6.93645 37.5402 7.11942 37.2983 7.10251L34.6706 6.91876C34.4287 6.90184 34.2464 6.69145 34.2633 6.44883Z" fill="#5A54F2"/>
</g>
<g id="icon_2" opacity="0.48">
<path id="Rectangle 116 (Stroke)" fill-rule="evenodd" clip-rule="evenodd" d="M59.9744 9.45817C60.0569 8.278 61.0586 7.38666 62.2117 7.46729L70.0066 8.01236C71.1598 8.093 72.0276 9.11508 71.9451 10.2952L71.6264 14.8539C71.5438 16.0341 70.5421 16.9254 69.389 16.8448L61.5941 16.2997C60.441 16.2191 59.5731 15.197 59.6556 14.0168L59.9744 9.45817ZM62.1519 8.32204C61.4601 8.27366 60.859 8.80847 60.8095 9.51657L60.4908 14.0752C60.4412 14.7833 60.962 15.3966 61.6539 15.445L69.4488 15.99C70.1406 16.0384 70.7417 15.5036 70.7912 14.7955L71.11 10.2368C71.1595 9.52875 70.6387 8.9155 69.9469 8.86712L62.1519 8.32204Z" fill="#5A54F2"/>
<path id="Vector 284 (Stroke)" fill-rule="evenodd" clip-rule="evenodd" d="M69.7413 5.84253C69.7484 5.74103 69.6524 5.66504 69.5581 5.69744L64.0373 7.59327L69.5917 7.98168L69.7413 5.84253ZM69.294 4.88531C69.9545 4.65849 70.6261 5.19039 70.5764 5.90093L70.4009 8.41047C70.3822 8.67797 70.1552 8.88001 69.8938 8.86173L62.1564 8.32068C61.6384 8.28446 61.5478 7.54533 62.0406 7.37611L69.294 4.88531Z" fill="#5A54F2"/>
<path id="Vector 285 (Stroke)" fill-rule="evenodd" clip-rule="evenodd" d="M60.4514 10.6365C60.4679 10.4003 60.6683 10.2218 60.8989 10.2379L70.9209 10.9387C71.1516 10.9549 71.3251 11.1595 71.3086 11.3957C71.2921 11.632 71.0917 11.8104 70.8611 11.7943L60.8391 11.0935C60.6085 11.0774 60.4349 10.8728 60.4514 10.6365Z" fill="#5A54F2"/>
<path id="Vector 287 (Stroke)" fill-rule="evenodd" clip-rule="evenodd" d="M61.3672 13.563C61.3837 13.3268 61.5841 13.1483 61.8147 13.1645L65.1554 13.3981C65.386 13.4142 65.5596 13.6188 65.543 13.855C65.5265 14.0913 65.3262 14.2697 65.0955 14.2536L61.7549 14.02C61.5242 14.0039 61.3507 13.7993 61.3672 13.563Z" fill="#5A54F2"/>
</g>
<g id="icon_3" opacity="0.48">
<path id="Vector 282 (Stroke)" fill-rule="evenodd" clip-rule="evenodd" d="M11.6203 3.9213L4.19645 9.44008L4.06318 11.3458L4.85163 10.2926C5.02561 10.0603 5.34926 10.0322 5.55376 10.2318L6.717 11.3672L11.6203 3.9213ZM12.8258 1.93713C13.265 1.6106 13.7994 2.1709 13.4928 2.6365L7.16868 12.2399C7.00176 12.4934 6.66202 12.534 6.44886 12.326L5.26701 11.1724L3.98529 12.8845C3.69172 13.2766 3.09728 13.0361 3.13202 12.5393L3.36571 9.19737C3.37634 9.04538 3.45127 8.90602 3.56969 8.81798L12.8258 1.93713Z" fill="#6661F3"/>
<path id="Vector 281 (Stroke)" fill-rule="evenodd" clip-rule="evenodd" d="M10.7066 3.65762L2.44837 7.03308L3.99682 8.68158L10.7066 3.65762ZM4.60252 9.31868L6.8877 11.7019L11.6091 4.07251L4.60252 9.31868ZM13.3152 2.59139C13.3148 2.59154 13.3144 2.5917 13.3141 2.59186L13.3152 2.59139ZM13.0149 1.75928C13.4493 1.58174 13.8408 2.09317 13.5858 2.50515L7.34807 12.5848C7.18107 12.8547 6.82229 12.8959 6.6076 12.67L6.55616 12.6159L6.55481 12.6144L3.64509 9.57995L1.45151 7.2446C1.20881 6.98621 1.29949 6.54782 1.62302 6.41558L13.0149 1.75928Z" fill="#6661F3"/>
</g>
</g>
</svg>
