<svg width="217" height="217" viewBox="0 0 217 217" fill="none" xmlns="http://www.w3.org/2000/svg">
<path fill-rule="evenodd" clip-rule="evenodd" d="M16.8292 84.684C18.2134 76.3469 26.0941 70.7105 34.4312 72.0948C42.7683 73.479 48.4047 81.3598 47.0205 89.6969L34.1304 167.332C32.7461 175.669 24.8654 181.305 16.5283 179.921C8.19121 178.537 2.55481 170.656 3.93906 162.319L16.8292 84.684ZM32.2829 85.0339C31.0919 84.8362 29.9661 85.6414 29.7683 86.8324L16.8782 164.467C16.6805 165.658 17.4857 166.784 18.6767 166.982C19.8677 167.18 20.9935 166.374 21.1912 165.183L34.0813 87.5485C34.2791 86.3575 33.4739 85.2317 32.2829 85.0339Z" fill="white"/>
<path fill-rule="evenodd" clip-rule="evenodd" d="M142.561 25.2724C144.808 22.7062 148.556 20.1323 153.715 20.9889C160.2 22.0656 163.86 27.2831 165.165 33.1278C166.434 38.8113 165.86 46.0789 163.63 54.5259C161.788 61.5014 157.977 70.0351 154.048 77.7129C152.021 81.6742 149.902 85.5236 147.899 88.9647L181.393 94.5258C181.631 94.5653 181.867 94.618 182.1 94.6836C188.418 96.466 194.042 99.0914 197.496 104.525C200.794 109.715 201.26 116.196 200.94 123.323C200.928 123.585 200.901 123.845 200.858 124.103L196.084 152.857C194.315 163.509 188.29 178.147 181.153 189.806C177.567 195.664 173.475 201.144 169.178 205.104C165.191 208.779 159.518 212.526 153.114 211.463L92.731 201.437L93.8051 194.968C92.731 201.437 92.7274 201.436 92.7238 201.436L92.7165 201.435L92.7012 201.432L92.6681 201.426L92.5921 201.413L92.4013 201.376C92.2573 201.346 92.0798 201.308 91.8716 201.257C91.4553 201.156 90.9149 201.007 90.2723 200.793C88.9875 200.364 87.2888 199.671 85.3585 198.568C81.4672 196.344 76.7454 192.513 72.6169 186.048C69.1946 180.688 61.7155 177.498 56.3096 175.954C50.5659 174.314 47.235 168.484 48.1835 162.771L59.2526 96.1037C60.2502 90.0952 65.9583 85.2507 72.5859 86.6643C77.5286 87.7184 80.7855 87.8215 83.0953 87.2608C85.0638 86.783 86.8172 85.715 88.5991 83.0386C88.7416 82.8246 88.8965 82.6191 89.0631 82.4233C94.9875 75.4599 99.9252 71.4855 104.444 68.4553C106.022 67.3968 107.596 66.4254 109.012 65.5517C109.517 65.2399 110.002 64.9406 110.46 64.6542C112.272 63.5206 113.893 62.45 115.517 61.1616C129.685 49.8554 135.864 37.259 138.264 32.3211C138.291 32.2649 138.319 32.2075 138.348 32.1491C139.218 30.3554 140.597 27.5151 142.561 25.2724ZM151.384 35.4718C150.954 36.2284 150.542 37.0652 150.061 38.0541C147.392 43.5465 140.173 58.2689 123.692 71.4186L123.68 71.4282C121.488 73.1689 119.385 74.5421 117.416 75.7742C116.822 76.1456 116.256 76.4946 115.706 76.8343C114.361 77.664 113.106 78.4385 111.749 79.3487C108.212 81.7205 104.263 84.845 99.2839 90.6523C95.9198 95.5559 91.5898 98.6961 86.1891 100.007C81.6449 101.11 76.8018 100.798 71.9176 99.9031L61.3149 163.761C67.4079 165.658 77.9144 169.973 83.6717 178.989C86.578 183.54 89.6866 185.934 91.867 187.181C92.9726 187.812 93.8701 188.166 94.4225 188.35C94.6986 188.442 94.887 188.492 94.9699 188.512C94.9751 188.513 94.9798 188.514 94.9842 188.515L155.262 198.524C155.328 198.534 156.92 198.564 160.29 195.458C163.352 192.637 166.711 188.275 169.966 182.958C176.512 172.266 181.731 159.225 183.145 150.708L187.853 122.35C188.112 115.877 187.384 113.068 186.426 111.561C185.623 110.297 183.956 108.877 178.876 107.404L136.114 100.304C133.919 99.9393 132.058 98.4864 131.172 96.4449C130.287 94.4035 130.496 92.0521 131.73 90.1997C134.523 86.0035 138.596 79.117 142.372 71.7376C146.188 64.28 149.475 56.7568 150.948 51.1782C152.919 43.7113 152.986 38.7744 152.364 35.9858C152.225 35.3641 152.066 34.9114 151.922 34.5896C151.76 34.8332 151.581 35.1248 151.384 35.4718Z" fill="white"/>
</svg>
