<svg width="307" height="307" viewBox="0 0 307 307" fill="none" xmlns="http://www.w3.org/2000/svg">
<g id="icon">
<path id="Rectangle 94 (Stroke)" fill-rule="evenodd" clip-rule="evenodd" d="M55.0168 61.8155C66.1109 27.6782 102.778 8.9981 136.915 20.0922L244.382 55.0173C278.519 66.1115 297.199 102.779 286.105 136.916L251.18 244.382C240.086 278.52 203.419 297.2 169.281 286.106L61.8149 251.181C27.6776 240.086 8.99755 203.419 20.0917 169.282L55.0168 61.8155ZM131.675 36.2168C106.443 28.0168 79.3414 41.8239 71.1414 67.0557L36.2163 174.522C28.0163 199.754 41.8233 226.856 67.0552 235.056L174.522 269.981C199.753 278.181 226.855 264.374 235.055 239.142L269.98 131.676C278.18 106.444 264.373 79.342 239.142 71.1419L131.675 36.2168Z" fill="#ECEEF3"/>
<path id="Vector 253" d="M185.442 168.62L110.69 179.891C107.29 180.403 104.778 176.923 105.948 173.321L116.399 141.158L126.85 108.994C128.02 105.392 132.097 104.053 134.547 106.466L188.398 159.522C191.332 162.412 189.514 168.006 185.442 168.62Z" fill="#ECEEF3"/>
<path id="Vector 253 (Stroke)" fill-rule="evenodd" clip-rule="evenodd" d="M120.218 106.83C123.145 97.8245 133.338 94.4767 139.462 100.51L193.314 153.567C200.646 160.791 196.102 174.776 185.924 176.311L111.171 187.582C102.67 188.863 96.3912 180.163 99.3174 171.157L120.218 106.83ZM132.243 114.972L113.831 171.639L179.682 161.71L132.243 114.972Z" fill="#ECEEF3"/>
</g>
</svg>
