<svg width="308" height="259" viewBox="0 0 308 259" fill="none" xmlns="http://www.w3.org/2000/svg">
<path fill-rule="evenodd" clip-rule="evenodd" d="M55.9262 54.8155C67.0204 20.6782 103.688 1.9981 137.825 13.0922L245.291 48.0173C279.429 59.1115 298.109 95.7788 287.014 129.916L252.089 237.382C240.995 271.52 204.328 290.2 170.191 279.106L62.7244 244.181C28.5871 233.086 9.90698 196.419 21.0011 162.282L55.9262 54.8155ZM132.585 29.2168C107.353 21.0168 80.2508 34.8239 72.0508 60.0557L37.1257 167.522C28.9257 192.754 42.7327 219.856 67.9646 228.056L175.431 262.981C200.663 271.181 227.765 257.374 235.965 232.142L270.89 124.676C279.09 99.4439 265.283 72.342 240.051 64.1419L132.585 29.2168Z" fill="#ECEEF3"/>
<path d="M186.352 161.62L111.599 172.891C108.199 173.403 105.687 169.923 106.858 166.321L117.308 134.158L127.759 101.994C128.929 98.3917 133.007 97.0526 135.456 99.466L189.308 152.522C192.241 155.412 190.423 161.006 186.352 161.62Z" fill="#ECEEF3"/>
<path fill-rule="evenodd" clip-rule="evenodd" d="M121.128 99.8303C124.054 90.8245 134.248 87.4767 140.372 93.5102L194.223 146.567C201.556 153.791 197.012 167.776 186.833 169.311L112.081 180.582C103.58 181.863 97.3007 173.163 100.227 164.157L121.128 99.8303ZM133.153 107.972L114.741 164.639L180.592 154.71L133.153 107.972Z" fill="#ECEEF3"/>
</svg>
