<svg width="432" height="345" viewBox="0 0 432 345" fill="none" xmlns="http://www.w3.org/2000/svg">
<path fill-rule="evenodd" clip-rule="evenodd" d="M163.333 57.3422C151.948 53.422 139.547 59.4551 135.635 70.8173C131.722 82.1795 137.78 94.5683 149.165 98.4884C160.55 102.409 172.95 96.3755 176.863 85.0133C180.775 73.651 174.717 61.2623 163.333 57.3422ZM110.898 62.2997C119.505 37.3028 146.787 24.0301 171.833 32.6544C196.88 41.2786 210.207 68.534 201.6 93.5309C192.992 118.528 165.711 131.8 140.664 123.176C115.617 114.552 102.291 87.2966 110.898 62.2997Z" fill="white"/>
<path fill-rule="evenodd" clip-rule="evenodd" d="M43.7573 157.689C65.4165 142.414 95.1388 135.123 132.152 147.868C169.166 160.612 188.098 184.657 195.762 210.028C203.189 234.614 199.794 259.464 194.391 275.155C192.044 281.972 184.603 285.592 177.772 283.24L12.8599 226.456C6.02902 224.104 2.39443 216.671 4.74183 209.853C10.1446 194.162 22.7689 172.49 43.7573 157.689ZM34.8618 206.417L172.772 253.903C174.492 243.177 174.526 230.14 170.72 217.541C165.454 200.106 152.603 182.524 123.652 172.555C94.7004 162.587 73.7493 168.53 58.8652 179.026C48.1092 186.612 40.1102 196.906 34.8618 206.417Z" fill="white"/>
<path fill-rule="evenodd" clip-rule="evenodd" d="M311.733 108.44C300.348 104.52 287.947 110.553 284.035 121.915C280.122 133.277 286.18 145.666 297.565 149.586C308.95 153.506 321.351 147.473 325.263 136.111C329.175 124.749 323.118 112.36 311.733 108.44ZM259.298 113.398C267.905 88.4007 295.187 75.128 320.233 83.7523C345.28 92.3765 358.607 119.632 350 144.629C341.393 169.626 314.111 182.898 289.064 174.274C264.018 165.65 250.691 138.395 259.298 113.398Z" fill="white"/>
<path fill-rule="evenodd" clip-rule="evenodd" d="M252.063 190.201C257.616 191.355 264.344 193.384 272.35 196.141C311.573 209.646 336.194 235.008 349.573 261.111C362.61 286.547 365.513 313.931 359.311 331.941C356.964 338.758 349.524 342.378 342.693 340.026L226.253 299.933C219.423 297.58 215.788 290.147 218.135 283.33C226.563 258.852 224.156 239.931 222.271 225.122C221.879 222.04 221.51 219.136 221.265 216.397C220.94 212.747 220.652 207.611 222.129 202.816C222.952 200.144 224.414 197.239 226.953 194.726C229.516 192.19 232.547 190.677 235.551 189.87C240.985 188.41 246.874 189.124 252.063 190.201ZM246.531 279.3C252.556 254.176 249.818 233.552 248.138 220.905C247.895 219.076 247.675 217.414 247.506 215.929C251.371 216.785 256.653 218.351 263.849 220.828C296.276 231.994 315.799 252.516 326.291 272.986C333.36 286.778 336.112 300.034 336.27 310.199L246.531 279.3Z" fill="white"/>
</svg>
