<svg width="184" height="238" viewBox="0 0 184 238" fill="none" xmlns="http://www.w3.org/2000/svg">
<path id="Vector 333 (Stroke)" fill-rule="evenodd" clip-rule="evenodd" d="M116.828 6.76898C118.496 -1.53962 130.362 -4.40827 134.969 4.12619C145.169 23.02 150.218 41.2914 148.35 62.8834C146.863 80.0784 141.024 98.9302 130.688 121.454C134.331 119.303 137.925 116.619 141.337 113.496C149.63 105.905 156.039 96.4417 159.01 87.7311C160.397 83.667 164.068 81.3546 167.737 81.1634C171.536 80.9654 175.755 83.0701 177.387 87.5037C181.405 98.4161 183.531 114.133 183.529 130.025C183.527 145.963 181.386 163.141 176.125 176.94C161.374 215.623 120.39 248.534 67.0627 234.245C22.8032 222.386 1.2936 190.811 0.808799 157.281C0.332565 124.343 20.1835 90.7832 55.3972 74.1112C81.9174 61.5546 94.3542 55.215 101.898 47.0751C108.986 39.4273 112.256 29.5466 116.828 6.76898ZM128.434 32.5979C125.271 43.1878 121.249 51.4898 114.591 58.6739C104.292 69.7867 88.1896 77.5497 62.8629 89.5413L62.8627 89.5413C33.4665 103.459 17.6464 131.068 18.0229 157.109C18.3908 182.558 34.2577 207.773 71.4831 217.748C114.233 229.203 147.584 203.447 160.02 170.831C164.293 159.626 166.311 144.687 166.313 129.95C166.314 123.733 165.956 117.74 165.313 112.262C161.739 117.243 157.575 121.928 153.038 126.081C143.048 135.226 130.437 142.524 117.17 144.131C108.622 145.167 104.18 136.276 107.322 130.129C122.329 100.777 129.642 79.3375 131.197 61.3496C132.079 51.1552 131.129 41.8494 128.434 32.5979Z" fill="white"/>
</svg>
