<svg width="280" height="224" viewBox="0 0 280 224" fill="none" xmlns="http://www.w3.org/2000/svg">
<path fill-rule="evenodd" clip-rule="evenodd" d="M43.1317 78.5845C46.4679 86.794 53.2168 101.861 63.4038 117.581C77.1089 138.73 96.2042 159.764 120.413 168.1C144.621 176.435 172.618 171.616 196.438 163.388C214.144 157.272 228.738 149.555 236.422 145.14C233.085 136.93 226.337 121.863 216.15 106.143C202.444 84.9942 183.349 63.96 159.141 55.6244C134.933 47.2888 106.935 52.1077 83.1149 60.3357C65.4091 66.4517 50.8149 74.1693 43.1317 78.5845ZM77.5666 44.2732C102.649 35.6093 135.089 29.3698 164.673 39.5565C194.258 49.7433 215.98 74.6322 230.411 96.9017C244.974 119.375 252.96 140.503 254.603 145.056C256.135 149.301 254.518 153.997 250.697 156.399C246.599 158.975 227.298 170.708 201.987 179.451C176.904 188.115 144.464 194.354 114.88 184.168C85.2954 173.981 63.5738 149.092 49.1427 126.822C34.5796 104.349 26.5938 83.2207 24.9507 78.6683C23.4186 74.4234 25.0355 69.727 28.8564 67.3252C32.954 64.7494 52.255 53.0164 77.5666 44.2732Z" fill="white"/>
<path fill-rule="evenodd" clip-rule="evenodd" d="M148.076 87.7605C134.765 83.1771 120.259 90.2523 115.676 103.563C111.092 116.874 118.167 131.381 131.479 135.964C144.79 140.548 159.296 133.472 163.879 120.161C168.463 106.85 161.387 92.3438 148.076 87.7605ZM99.6077 98.0308C107.247 75.8456 131.424 64.0536 153.609 71.6926C175.794 79.3315 187.586 103.509 179.947 125.694C172.308 147.879 148.131 159.671 125.946 152.032C103.761 144.393 91.9688 120.216 99.6077 98.0308Z" fill="white"/>
</svg>
