<svg width="216" height="217" viewBox="0 0 216 217" fill="none" xmlns="http://www.w3.org/2000/svg">
<path fill-rule="evenodd" clip-rule="evenodd" d="M137.916 55.5428C108.653 39.0522 71.5623 49.4066 55.0717 78.6698C38.5812 107.933 48.9355 145.024 78.1987 161.514C107.462 178.005 144.553 167.651 161.043 138.387C177.534 109.124 167.18 72.0334 137.916 55.5428ZM45.4379 73.2409C64.9268 38.6571 108.761 26.4202 143.345 45.909C177.929 65.3979 190.166 109.232 170.677 143.816C151.188 178.4 107.354 190.637 72.7699 171.148C38.186 151.659 25.9491 107.825 45.4379 73.2409Z" fill="white"/>
<path fill-rule="evenodd" clip-rule="evenodd" d="M132.487 65.1766C135.148 66.6757 136.089 70.0476 134.59 72.7079L112.874 111.243C111.375 113.903 108.003 114.845 105.343 113.346L76.4418 97.0589C73.7815 95.5597 72.8402 92.1879 74.3393 89.5276C75.8384 86.8673 79.2103 85.926 81.8706 87.4251L105.955 100.997L124.956 67.2791C126.455 64.6188 129.827 63.6775 132.487 65.1766Z" fill="white"/>
<path fill-rule="evenodd" clip-rule="evenodd" d="M54.3183 143.826C56.9786 145.325 57.9199 148.697 56.4207 151.358L50.9918 160.991C49.4927 163.652 46.1208 164.593 43.4605 163.094C40.8002 161.595 39.8589 158.223 41.3581 155.562L46.7869 145.929C48.2861 143.268 51.658 142.327 54.3183 143.826Z" fill="white"/>
<path fill-rule="evenodd" clip-rule="evenodd" d="M105.698 172.78C108.359 174.279 109.3 177.651 107.801 180.311L102.372 189.945C100.873 192.606 97.501 193.547 94.8407 192.048C92.1804 190.549 91.2391 187.177 92.7382 184.516L98.1671 174.883C99.6663 172.222 103.038 171.281 105.698 172.78Z" fill="white"/>
<path fill-rule="evenodd" clip-rule="evenodd" d="M181.299 60.6934C184.24 59.8724 187.29 61.5911 188.111 64.5322L199.324 104.699C200.145 107.64 198.426 110.69 195.485 111.511C192.544 112.332 189.494 110.614 188.673 107.673L177.46 67.5055C176.639 64.5644 178.357 61.5145 181.299 60.6934Z" fill="white"/>
<path fill-rule="evenodd" clip-rule="evenodd" d="M111.04 21.1013C111.861 24.0424 110.143 27.0923 107.202 27.9134L67.0345 39.1265C64.0933 39.9475 61.0434 38.2288 60.2224 35.2877C59.4013 32.3465 61.12 29.2966 64.0612 28.4756L104.228 17.2625C107.169 16.4414 110.219 18.1601 111.04 21.1013Z" fill="white"/>
</svg>
