<svg width="253" height="241" viewBox="0 0 253 241" fill="none" xmlns="http://www.w3.org/2000/svg">
<path fill-rule="evenodd" clip-rule="evenodd" d="M22.4243 138.749C17.1763 119.163 28.7995 99.0305 48.3856 93.7824L178.104 59.0245C192.206 55.2459 206.701 63.6146 210.48 77.7166L213.526 89.0878C220.668 87.6114 227.808 91.9491 229.719 99.0837L239.518 135.651C241.429 142.785 237.415 150.112 230.492 152.404L233.539 163.775C237.318 177.877 228.949 192.372 214.847 196.151L85.1284 230.909C65.5424 236.157 45.4104 224.534 40.1623 204.948L22.4243 138.749ZM52.1866 107.968C40.4349 111.117 33.461 123.196 36.6098 134.948L54.3478 201.147C57.4966 212.898 69.5758 219.872 81.3274 216.723L211.046 181.965C217.313 180.286 221.033 173.844 219.353 167.576L216.101 155.44C214.19 148.305 218.204 140.979 225.127 138.686L215.739 103.65C208.597 105.126 201.458 100.789 199.546 93.6541L196.294 81.5176C194.615 75.25 188.172 71.5306 181.905 73.21L52.1866 107.968Z" fill="white"/>
<path fill-rule="evenodd" clip-rule="evenodd" d="M159.89 122.187C157.441 113.047 162.865 103.652 172.005 101.202L209.833 91.0665C218.974 88.6174 228.368 94.0416 230.818 103.182L238.42 131.553C240.869 140.693 235.444 150.088 226.304 152.537L188.476 162.673C179.336 165.122 169.941 159.698 167.492 150.558L159.89 122.187ZM175.806 115.388C174.501 115.738 173.726 117.08 174.076 118.386L181.678 146.757C182.028 148.062 183.37 148.837 184.675 148.487L222.503 138.351C223.809 138.002 224.584 136.659 224.234 135.354L216.632 106.983C216.282 105.677 214.94 104.902 213.634 105.252L175.806 115.388Z" fill="white"/>
<path fill-rule="evenodd" clip-rule="evenodd" d="M123.239 38.5665C122.274 37.5535 120.658 37.5541 119.693 38.5678L73.5936 87.0273L149.921 66.5754L123.239 38.5665ZM109.053 28.4456C115.803 21.3499 127.117 21.346 133.872 28.4369L167.949 64.2077C172.306 68.7815 170.179 76.3514 164.077 77.9863L55.5474 107.067C47.4291 109.242 41.5709 99.382 47.364 93.2924L109.053 28.4456Z" fill="white"/>
<path fill-rule="evenodd" clip-rule="evenodd" d="M112.82 182.945C108.903 183.995 104.877 181.67 103.827 177.753L91.1573 130.468C90.1077 126.551 92.4323 122.524 96.3495 121.475C100.267 120.425 104.293 122.75 105.343 126.667L118.013 173.952C119.062 177.869 116.738 181.895 112.82 182.945Z" fill="white"/>
</svg>
