<svg width="311" height="231" viewBox="0 0 311 231" fill="none" xmlns="http://www.w3.org/2000/svg">
<path fill-rule="evenodd" clip-rule="evenodd" d="M49.9972 89.9833L75.8978 35.2477C79.0911 28.4993 87.1505 25.6172 93.8989 28.8104L231.293 93.8205C233.482 94.8562 235.352 96.4609 236.709 98.4668L270.019 147.724C275.777 156.238 270.302 167.809 260.067 168.756L200.855 174.235C198.444 174.458 196.017 174.029 193.828 172.994L56.4342 107.983C49.6859 104.79 46.804 96.7315 49.9972 89.9833ZM65.8164 94.4772L200.098 158.015L254.022 153.025L223.686 108.167L89.4043 44.6291L65.8164 94.4772Z" fill="white"/>
<path fill-rule="evenodd" clip-rule="evenodd" d="M97.6423 79.0155C98.9195 76.3162 102.143 75.1633 104.842 76.4406L187.786 115.687C190.485 116.964 191.638 120.187 190.361 122.887C189.083 125.586 185.86 126.739 183.16 125.462L100.217 86.2157C97.5179 84.9385 96.365 81.7148 97.6423 79.0155Z" fill="white"/>
<path fill-rule="evenodd" clip-rule="evenodd" d="M210.815 138.564C208.116 137.287 206.963 134.063 208.241 131.364L221.324 103.717C222.601 101.017 225.825 99.8647 228.524 101.142C231.223 102.419 232.376 105.643 231.099 108.342L218.016 135.99C216.738 138.689 213.515 139.842 210.815 138.564Z" fill="white"/>
<path fill-rule="evenodd" clip-rule="evenodd" d="M21.464 85.7863C17.4151 83.8703 15.686 79.0348 17.602 74.9859L43.7682 19.6915C45.6842 15.6426 50.5197 13.9135 54.5686 15.8295C58.6176 17.7455 60.3466 22.581 58.4306 26.6299L32.2645 81.9244C30.3485 85.9733 25.5129 87.7023 21.464 85.7863Z" fill="white"/>
</svg>
