<svg width="40" height="40" viewBox="0 0 40 40" fill="none" xmlns="http://www.w3.org/2000/svg">
<g id="Group 1000003076">
<path id="XMLID_22_" d="M20 40C31.0457 40 40 31.0457 40 20C40 8.9543 31.0457 0 20 0C8.9543 0 0 8.9543 0 20C0 31.0457 8.9543 40 20 40Z" fill="url(#paint0_radial_93_273)"/>
<g id="XMLID_16_">
<path id="XMLID_23_" d="M26.2499 12.3549C27.1402 12.3549 27.7337 12.9487 27.7337 13.8394C27.7337 14.6312 27.0413 15.324 26.2499 15.324C25.4586 15.324 24.8156 14.6312 24.7662 13.7899C24.7167 13.1961 25.4091 12.2559 26.2499 12.3549Z" fill="white"/>
<path id="XMLID_20_" d="M20.1173 13.8883C16.6057 13.8389 13.8854 16.6595 13.8854 19.9749C13.836 23.3894 16.5562 26.1605 19.9689 26.1605C23.3321 26.21 26.1513 23.4883 26.1513 20.0244C26.1513 16.61 23.431 13.9378 20.1173 13.8883ZM20.0678 23.8842C17.9411 23.9337 16.21 22.2017 16.21 20.0739C16.21 17.8966 17.8422 16.2141 20.0184 16.2141C22.1451 16.2141 23.8762 17.8471 23.8762 20.0244C23.8267 22.1523 22.1945 23.8347 20.0678 23.8842Z" fill="white"/>
<path id="XMLID_17_" d="M31.9876 15.7196C31.9876 15.5711 31.9876 15.4227 31.9382 15.3237C31.9382 15.1753 31.9382 15.0268 31.8887 14.8784C31.8887 14.8289 31.8887 14.8289 31.8887 14.7794C31.8393 14.2845 31.7898 13.7897 31.6414 13.3443C31.493 12.701 31.3447 12.1567 31.1468 11.7608C31.1468 11.7608 31.1468 11.7608 31.1468 11.7113L31.0974 11.6619C30.7017 10.8701 30.306 10.4742 30.1576 10.3258C29.7125 9.83093 29.2179 9.38557 28.6244 9.03918C27.4869 8.39588 26.2998 8 24.9645 8C21.6507 8 18.2875 8 14.9737 8C14.1824 8 13.391 8.14845 12.6491 8.44536C10.2257 9.38557 8.64297 11.1175 8.09892 13.7402C8.04946 14.433 8 15.1258 8 15.8186C8 18.6887 8 21.5588 8 24.4289C8 24.9732 8.04946 25.468 8.09892 26.0124C8.59351 28.833 10.2257 30.7134 12.8964 31.6536C13.7372 31.9505 14.5781 32 15.4189 32C18.4359 32 21.5023 32 24.5193 32C24.9645 32 25.459 31.9505 25.9042 31.901C27.5363 31.6536 28.8717 30.9113 30.0093 29.7237C31.2952 28.3381 31.9382 26.6557 31.9382 24.7753C32.0371 21.7072 31.9876 18.7381 31.9876 15.7196ZM29.6631 16.3629C29.6631 16.7093 29.6631 17.0062 29.6631 17.3526C29.6631 19.7773 29.6631 22.1526 29.6631 24.5773C29.6631 25.468 29.5147 26.3588 29.119 27.1505C28.3277 28.6845 27.0417 29.4763 25.3601 29.7237C25.0139 29.7732 24.7172 29.7732 24.3709 29.7732C21.4529 29.7732 18.5348 29.7732 15.5672 29.7732C14.9737 29.7732 14.3802 29.7732 13.7867 29.5753C11.8578 29.0309 10.5224 27.3979 10.374 25.4186C10.3246 25.0722 10.3246 24.7753 10.3246 24.4289C10.3246 21.5093 10.3246 18.5897 10.3246 15.6206C10.3246 15.5217 10.3246 15.4227 10.3246 15.3732C10.3246 14.7299 10.3246 14.0866 10.6708 13.5423C10.8686 13.2454 11.017 12.899 11.2643 12.6515C12.2535 11.266 13.6383 10.6227 15.3199 10.5237C15.8145 10.5237 16.3091 10.5237 16.8037 10.5237C19.3756 10.5237 21.9475 10.5237 24.5193 10.5237C25.8547 10.5237 27.0417 10.9196 28.0804 11.7608C28.1793 11.8598 28.2782 11.9588 28.3277 12.0577C28.3771 12.1072 28.3771 12.1567 28.4266 12.2062C29.3663 13.4433 29.6136 15.2247 29.6631 16.3629Z" fill="white"/>
</g>
</g>
<defs>
<radialGradient id="paint0_radial_93_273" cx="0" cy="0" r="1" gradientUnits="userSpaceOnUse" gradientTransform="translate(-0.999326 40.1556) scale(73.8424 73.9981)">
<stop stop-color="#F5EC53"/>
<stop offset="0.2412" stop-color="#E48244"/>
<stop offset="0.3974" stop-color="#D15767"/>
<stop offset="0.4888" stop-color="#C84278"/>
<stop offset="1" stop-color="#192CFA"/>
</radialGradient>
</defs>
</svg>
