<svg width="15" height="15" viewBox="0 0 15 15" fill="none" xmlns="http://www.w3.org/2000/svg">
<path id="Vector" fill-rule="evenodd" clip-rule="evenodd" d="M14.9367 0.514167C14.8951 0.413874 14.8342 0.322711 14.7575 0.245834L14.7542 0.2425C14.5982 0.0869959 14.3869 -0.000227081 14.1667 4.44015e-07H9.16667C8.94565 4.44015e-07 8.73369 0.0877978 8.57741 0.244078C8.42113 0.400358 8.33333 0.61232 8.33333 0.833334C8.33333 1.05435 8.42113 1.26631 8.57741 1.42259C8.73369 1.57887 8.94565 1.66667 9.16667 1.66667H12.155L6.0775 7.74417C5.99791 7.82104 5.93442 7.91299 5.89075 8.01466C5.84707 8.11633 5.82409 8.22568 5.82312 8.33633C5.82216 8.44698 5.84325 8.55672 5.88515 8.65913C5.92705 8.76154 5.98893 8.85459 6.06717 8.93283C6.14541 9.01107 6.23846 9.07295 6.34087 9.11485C6.44328 9.15675 6.55302 9.17784 6.66367 9.17688C6.77432 9.17591 6.88367 9.15293 6.98534 9.10925C7.08701 9.06558 7.17896 9.00209 7.25583 8.9225L13.3333 2.845V5.83333C13.3333 6.05435 13.4211 6.26631 13.5774 6.42259C13.7337 6.57887 13.9457 6.66667 14.1667 6.66667C14.3877 6.66667 14.5996 6.57887 14.7559 6.42259C14.9122 6.26631 15 6.05435 15 5.83333V0.830834C14.9998 0.722156 14.9782 0.614577 14.9367 0.514167ZM0 4.16667C0 3.0616 0.438987 2.00179 1.22039 1.22039C2.00179 0.438987 3.0616 4.44015e-07 4.16667 4.44015e-07H5C5.22101 4.44015e-07 5.43297 0.0877978 5.58926 0.244078C5.74554 0.400358 5.83333 0.61232 5.83333 0.833334C5.83333 1.05435 5.74554 1.26631 5.58926 1.42259C5.43297 1.57887 5.22101 1.66667 5 1.66667H4.16667C3.50363 1.66667 2.86774 1.93006 2.3989 2.3989C1.93006 2.86774 1.66667 3.50363 1.66667 4.16667V10.8333C1.66667 11.4964 1.93006 12.1323 2.3989 12.6011C2.86774 13.0699 3.50363 13.3333 4.16667 13.3333H10.8333C11.4964 13.3333 12.1323 13.0699 12.6011 12.6011C13.0699 12.1323 13.3333 11.4964 13.3333 10.8333V10C13.3333 9.77899 13.4211 9.56703 13.5774 9.41074C13.7337 9.25446 13.9457 9.16667 14.1667 9.16667C14.3877 9.16667 14.5996 9.25446 14.7559 9.41074C14.9122 9.56703 15 9.77899 15 10V10.8333C15 11.9384 14.561 12.9982 13.7796 13.7796C12.9982 14.561 11.9384 15 10.8333 15H4.16667C3.0616 15 2.00179 14.561 1.22039 13.7796C0.438987 12.9982 0 11.9384 0 10.8333V4.16667Z" fill="#FFB800"/>
</svg>
