<svg width="589" height="1043" viewBox="0 0 589 1043" fill="none" xmlns="http://www.w3.org/2000/svg">
<mask id="path-1-inside-1_1_77" fill="white">
<path fill-rule="evenodd" clip-rule="evenodd" d="M619 4C619 -20.3005 599.301 -40 575 -40H44C19.6995 -40 0 -20.3005 0 4.00001V262V300.496C0 324.603 23.5718 343.997 36.3797 364.421C40.5745 371.11 43 379.022 43 387.5C43 395.978 40.5745 403.89 36.3797 410.579C23.5718 431.003 0 450.397 0 474.505V1067C0 1091.3 19.6995 1111 44 1111H575C599.301 1111 619 1091.3 619 1067V4Z"/>
</mask>
<path fill-rule="evenodd" clip-rule="evenodd" d="M619 4C619 -20.3005 599.301 -40 575 -40H44C19.6995 -40 0 -20.3005 0 4.00001V262V300.496C0 324.603 23.5718 343.997 36.3797 364.421C40.5745 371.11 43 379.022 43 387.5C43 395.978 40.5745 403.89 36.3797 410.579C23.5718 431.003 0 450.397 0 474.505V1067C0 1091.3 19.6995 1111 44 1111H575C599.301 1111 619 1091.3 619 1067V4Z" fill="#D9D9D9" fill-opacity="0.084"/>
<path d="M44 -39H575V-41H44V-39ZM1 262V4.00001H-1V262H1ZM1 300.496V262H-1V300.496H1ZM35.5325 364.952C39.6304 371.487 42 379.215 42 387.5H44C44 378.828 41.5187 370.733 37.2269 363.89L35.5325 364.952ZM42 387.5C42 395.785 39.6304 403.513 35.5325 410.048L37.2269 411.11C41.5187 404.267 44 396.172 44 387.5H42ZM1 1067V474.505H-1V1067H1ZM575 1110H44V1112H575V1110ZM618 4V1067H620V4H618ZM575 1112C599.853 1112 620 1091.85 620 1067H618C618 1090.75 598.748 1110 575 1110V1112ZM-1 300.496C-1 312.876 5.05243 323.969 12.5752 334.424C16.3397 339.656 20.5092 344.776 24.5079 349.827C28.5174 354.892 32.3621 359.897 35.5325 364.952L37.2269 363.89C33.9933 358.733 30.0886 353.655 26.0761 348.586C22.0529 343.503 17.928 338.439 14.1986 333.256C6.73347 322.881 1 312.222 1 300.496H-1ZM-1 1067C-1 1091.85 19.1472 1112 44 1112V1110C20.2518 1110 1 1090.75 1 1067H-1ZM575 -39C598.748 -39 618 -19.7482 618 4H620C620 -20.8528 599.853 -41 575 -41V-39ZM35.5325 410.048C32.3621 415.103 28.5174 420.108 24.5079 425.173C20.5092 430.224 16.3397 435.344 12.5752 440.576C5.05243 451.031 -1 462.124 -1 474.505H1C1 462.778 6.73347 452.119 14.1986 441.744C17.928 436.561 22.0529 431.497 26.0761 426.414C30.0886 421.345 33.9933 416.267 37.2269 411.11L35.5325 410.048ZM44 -41C19.1472 -41 -1 -20.8528 -1 4.00001H1C1 -19.7482 20.2518 -39 44 -39V-41Z" fill="url(#paint0_linear_1_77)" fill-opacity="0.62" mask="url(#path-1-inside-1_1_77)"/>
<defs>
<linearGradient id="paint0_linear_1_77" x1="625.548" y1="1168.65" x2="-248.349" y2="261.955" gradientUnits="userSpaceOnUse">
<stop stop-color="white" stop-opacity="0.75"/>
<stop offset="0.229167" stop-color="white" stop-opacity="0.34"/>
<stop offset="0.484375" stop-color="white" stop-opacity="0"/>
<stop offset="0.755208" stop-color="white" stop-opacity="0.7"/>
<stop offset="1" stop-color="white" stop-opacity="0.75"/>
</linearGradient>
</defs>
</svg>
