<svg width="22" height="22" viewBox="0 0 22 22" fill="none" xmlns="http://www.w3.org/2000/svg">
<g id="icon">
<path id="Rectangle 153 (Stroke)" fill-rule="evenodd" clip-rule="evenodd" d="M0.750031 5.5C0.750031 2.87665 2.87668 0.75 5.50003 0.75H16.5C19.1234 0.75 21.25 2.87665 21.25 5.5V11C21.25 13.6234 19.1234 15.75 16.5 15.75H12.7663L6.42789 20.9C5.43416 21.7074 4.01334 20.6761 4.47297 19.4811L5.90801 15.75H5.50003C2.87668 15.75 0.750031 13.6234 0.750031 11V5.5ZM5.50003 2.25C3.70511 2.25 2.25003 3.70507 2.25003 5.5V11C2.25003 12.7949 3.70511 14.25 5.50003 14.25H6.27202C7.14924 14.25 7.7536 15.13 7.4387 15.9487L6.20946 19.1447L11.8893 14.5299C12.1121 14.3488 12.3905 14.25 12.6776 14.25H16.5C18.295 14.25 19.75 12.7949 19.75 11V5.5C19.75 3.70507 18.295 2.25 16.5 2.25H5.50003Z" fill="white"/>
<path id="Vector 385 (Stroke)" fill-rule="evenodd" clip-rule="evenodd" d="M5.75003 10.3574C5.75003 9.94321 6.08582 9.60742 6.50003 9.60742H15.5C15.9142 9.60742 16.25 9.94321 16.25 10.3574C16.25 10.7716 15.9142 11.1074 15.5 11.1074H6.50003C6.08582 11.1074 5.75003 10.7716 5.75003 10.3574Z" fill="white"/>
<path id="Vector 386 (Stroke)" fill-rule="evenodd" clip-rule="evenodd" d="M5.75003 7C5.75003 6.58579 6.08582 6.25 6.50003 6.25H11C11.4142 6.25 11.75 6.58579 11.75 7C11.75 7.41421 11.4142 7.75 11 7.75H6.50003C6.08582 7.75 5.75003 7.41421 5.75003 7Z" fill="white"/>
</g>
</svg>
