<svg width="22" height="22" viewBox="0 0 22 22" fill="none" xmlns="http://www.w3.org/2000/svg">
<g id="icon">
<path id="Rectangle 116 (Stroke)" fill-rule="evenodd" clip-rule="evenodd" d="M0.250031 10C0.250031 7.92893 1.92896 6.25 4.00003 6.25H18C20.0711 6.25 21.75 7.92893 21.75 10V18C21.75 20.0711 20.0711 21.75 18 21.75H4.00003C1.92896 21.75 0.250031 20.0711 0.250031 18V10ZM4.00003 7.75C2.75739 7.75 1.75003 8.75736 1.75003 10V18C1.75003 19.2426 2.75739 20.25 4.00003 20.25H18C19.2427 20.25 20.25 19.2426 20.25 18V10C20.25 8.75736 19.2427 7.75 18 7.75H4.00003Z" fill="white"/>
<path id="Vector 284 (Stroke)" fill-rule="evenodd" clip-rule="evenodd" d="M17.25 2.49594C17.25 2.31781 17.069 2.19683 16.9044 2.26494L7.27407 6.24992H17.25V2.49594ZM16.3309 0.878914C17.4831 0.402151 18.75 1.24902 18.75 2.49594V6.89992C18.75 7.36936 18.3695 7.74992 17.9 7.74992H4.00324C3.07296 7.74992 2.81865 6.4702 3.67824 6.11451L16.3309 0.878914Z" fill="white"/>
<path id="Vector 285 (Stroke)" fill-rule="evenodd" clip-rule="evenodd" d="M1.25003 12C1.25003 11.5858 1.58582 11.25 2.00003 11.25H20C20.4142 11.25 20.75 11.5858 20.75 12C20.75 12.4142 20.4142 12.75 20 12.75H2.00003C1.58582 12.75 1.25003 12.4142 1.25003 12Z" fill="white"/>
<path id="Vector 287 (Stroke)" fill-rule="evenodd" clip-rule="evenodd" d="M3.25003 17C3.25003 16.5858 3.58582 16.25 4.00003 16.25H10C10.4142 16.25 10.75 16.5858 10.75 17C10.75 17.4142 10.4142 17.75 10 17.75H4.00003C3.58582 17.75 3.25003 17.4142 3.25003 17Z" fill="white"/>
</g>
</svg>
