<svg width="110" height="30" viewBox="0 0 110 30" fill="none" xmlns="http://www.w3.org/2000/svg">
<g id="Group 1000003065">
<path id="Vector" d="M0 15C0 23.2709 6.72909 30 15 30C23.2709 30 30 23.2709 30 15C30 6.72909 23.2709 0 15 0C6.72909 0 0 6.72909 0 15ZM9.23077 10.3846C9.23077 10.0786 9.35233 9.78511 9.56872 9.56872C9.78511 9.35233 10.0786 9.23077 10.3846 9.23077C10.6906 9.23077 10.9841 9.35233 11.2005 9.56872C11.4169 9.78511 11.5385 10.0786 11.5385 10.3846V14.2067L19.5923 9.34183C19.7107 9.27088 19.8459 9.23275 19.9839 9.23134C20.1219 9.22993 20.2579 9.2653 20.3777 9.3338C20.4975 9.40231 20.5969 9.50149 20.6658 9.62115C20.7346 9.74081 20.7703 9.87663 20.7692 10.0147V19.9853C20.77 20.1232 20.7341 20.2589 20.6652 20.3783C20.5963 20.4978 20.4968 20.5968 20.3771 20.6651C20.2573 20.7334 20.1214 20.7687 19.9835 20.7672C19.8456 20.7657 19.7106 20.7276 19.5923 20.6567L11.5385 15.7933V19.6154C11.5385 19.9214 11.4169 20.2149 11.2005 20.4313C10.9841 20.6477 10.6906 20.7692 10.3846 20.7692C10.0786 20.7692 9.78511 20.6477 9.56872 20.4313C9.35233 20.2149 9.23077 19.9214 9.23077 19.6154V10.3846Z" fill="white"/>
<path id="Vector_2" d="M110 15C110 23.2709 103.271 30 95 30C86.7291 30 80 23.2709 80 15C80 6.72909 86.7291 0 95 0C103.271 0 110 6.72909 110 15ZM100.769 10.3846C100.769 10.0786 100.648 9.78511 100.431 9.56872C100.215 9.35233 99.9214 9.23077 99.6154 9.23077C99.3094 9.23077 99.0159 9.35233 98.7995 9.56872C98.5831 9.78511 98.4615 10.0786 98.4615 10.3846V14.2067L90.4077 9.34183C90.2893 9.27088 90.1541 9.23275 90.0161 9.23134C89.8781 9.22993 89.7421 9.2653 89.6223 9.3338C89.5025 9.40231 89.4031 9.50149 89.3342 9.62115C89.2654 9.74081 89.2297 9.87663 89.2308 10.0147V19.9853C89.23 20.1232 89.2659 20.2589 89.3348 20.3783C89.4037 20.4978 89.5032 20.5968 89.6229 20.6651C89.7427 20.7334 89.8786 20.7687 90.0165 20.7672C90.1544 20.7657 90.2894 20.7276 90.4077 20.6567L98.4615 15.7933V19.6154C98.4615 19.9214 98.5831 20.2149 98.7995 20.4313C99.0159 20.6477 99.3094 20.7692 99.6154 20.7692C99.9214 20.7692 100.215 20.6477 100.431 20.4313C100.648 20.2149 100.769 19.9214 100.769 19.6154V10.3846Z" fill="white"/>
<g id="Group">
<path id="Vector_3" d="M52.5002 23H50V7H52.5002V23Z" fill="white" stroke="white" stroke-linecap="round" stroke-linejoin="round"/>
<path id="Vector_4" d="M57.5 7H60.0002V23H57.5V7Z" fill="white" stroke="white" stroke-linecap="round" stroke-linejoin="round"/>
</g>
</g>
</svg>
