<svg width="233" height="1419" viewBox="0 0 233 1419" fill="none" xmlns="http://www.w3.org/2000/svg">
<mask id="path-1-inside-1_1_1083" fill="white">
<path fill-rule="evenodd" clip-rule="evenodd" d="M233 7C233 3.13401 229.866 0 226 0H7C3.13401 0 0 3.13402 0 7.00001V1412C0 1415.87 3.13401 1419 7 1419H61C64.866 1419 67.9475 1415.85 68.4933 1412.02C71.8809 1388.26 92.3075 1370 117 1370C141.693 1370 162.119 1388.26 165.507 1412.02C166.053 1415.85 169.134 1419 173 1419H226C229.866 1419 233 1415.87 233 1412V7Z"/>
</mask>
<path fill-rule="evenodd" clip-rule="evenodd" d="M233 7C233 3.13401 229.866 0 226 0H7C3.13401 0 0 3.13402 0 7.00001V1412C0 1415.87 3.13401 1419 7 1419H61C64.866 1419 67.9475 1415.85 68.4933 1412.02C71.8809 1388.26 92.3075 1370 117 1370C141.693 1370 162.119 1388.26 165.507 1412.02C166.053 1415.85 169.134 1419 173 1419H226C229.866 1419 233 1415.87 233 1412V7Z" fill="#D9D9D9" fill-opacity="0.1"/>
<path d="M68.4933 1412.02L67.5033 1411.88L68.4933 1412.02ZM165.507 1412.02L166.497 1411.88L165.507 1412.02ZM7 1H226V-1H7V1ZM1 1412V7.00001H-1V1412H1ZM61 1418H7V1420H61V1418ZM69.4832 1412.16C72.8016 1388.89 92.8123 1371 117 1371V1369C91.8027 1369 70.9602 1387.64 67.5033 1411.88L69.4832 1412.16ZM117 1371C141.188 1371 161.198 1388.89 164.517 1412.16L166.497 1411.88C163.04 1387.64 142.197 1369 117 1369V1371ZM226 1418H173V1420H226V1418ZM232 7V1412H234V7H232ZM226 1420C230.418 1420 234 1416.42 234 1412H232C232 1415.31 229.314 1418 226 1418V1420ZM61 1420C65.4484 1420 68.8799 1416.39 69.4832 1412.16L67.5033 1411.88C67.0151 1415.3 64.2836 1418 61 1418V1420ZM-1 1412C-1 1416.42 2.58172 1420 7 1420V1418C3.68629 1418 1 1415.31 1 1412H-1ZM226 1C229.314 1 232 3.68629 232 7H234C234 2.58172 230.418 -1 226 -1V1ZM164.517 1412.16C165.12 1416.39 168.552 1420 173 1420V1418C169.716 1418 166.985 1415.3 166.497 1411.88L164.517 1412.16ZM7 -1C2.58172 -1 -1 2.58174 -1 7.00001H1C1 3.6863 3.68629 1 7 1V-1Z" fill="url(#paint0_linear_1_1083)" fill-opacity="0.2" mask="url(#path-1-inside-1_1_1083)"/>
<defs>
<linearGradient id="paint0_linear_1_1083" x1="116.5" y1="0" x2="116.5" y2="1419" gradientUnits="userSpaceOnUse">
<stop stop-color="white" stop-opacity="0.2"/>
<stop offset="0.260417" stop-color="white" stop-opacity="0.2"/>
<stop offset="0.53125" stop-color="white" stop-opacity="0"/>
<stop offset="0.75" stop-color="white" stop-opacity="0.3"/>
<stop offset="0.989583" stop-color="white" stop-opacity="0.4"/>
</linearGradient>
</defs>
</svg>
