<svg width="35" height="255" viewBox="0 0 35 255" fill="none" xmlns="http://www.w3.org/2000/svg">
<g id="Group 1000003081">
<g id="Group 1000003074">
<path id="XMLID_22_" d="M17.5 35C27.165 35 35 27.165 35 17.5C35 7.83502 27.165 0 17.5 0C7.83502 0 0 7.83502 0 17.5C0 27.165 7.83502 35 17.5 35Z" fill="#1EC85A"/>
<path id="XMLID_16_" d="M17.635 6.82275C11.6983 6.82275 6.86914 11.519 6.86914 17.5443C6.86914 23.7911 11.9198 28.3101 17.5907 28.3544C23.5274 28.3544 28.3122 23.5253 28.3565 17.6329C28.3565 11.8291 23.7489 6.82275 17.635 6.82275ZM22.2869 22.3734C22.1096 22.7278 21.7109 22.8607 21.3122 22.6835C21.2236 22.6392 21.0907 22.5949 21.0021 22.5506C18.9198 21.5316 16.6603 21.2658 14.3565 21.5316C13.8691 21.5759 13.4261 21.6645 12.9831 21.7531C12.7615 21.7974 12.5843 21.7974 12.3628 21.7974C12.0527 21.7974 11.7869 21.5759 11.7426 21.2658C11.654 20.9557 11.7869 20.6012 12.097 20.4683C12.3185 20.3797 12.54 20.2911 12.7615 20.2468C13.7362 20.0253 14.7552 19.981 15.6413 19.9367C17.1033 19.981 18.4767 20.0696 19.8058 20.5126C20.4704 20.7341 21.135 21.0443 21.7552 21.3101C21.7995 21.3544 21.8438 21.3544 21.8881 21.3987C22.3312 21.6645 22.4641 22.019 22.2869 22.3734ZM23.6603 19.4936C23.4831 19.8481 23.04 20.0696 22.597 19.9367C22.4198 19.8924 22.1983 19.8038 22.021 19.6709C20.3375 18.8291 18.521 18.4747 16.6603 18.386C15.2869 18.3417 13.8691 18.4747 12.54 18.7405C12.3185 18.7848 12.1413 18.8291 11.9198 18.8291C11.521 18.8291 11.1666 18.519 11.1223 18.1645C11.0337 17.7658 11.2109 17.4114 11.6096 17.1898C11.7869 17.1012 12.0084 17.0569 12.1856 17.0126C13.4704 16.7468 14.7552 16.5696 16.2615 16.6139C17.3691 16.5696 18.654 16.7025 19.9388 17.0126C20.9577 17.2341 21.9324 17.5886 22.8628 18.0759C23.0843 18.1645 23.2615 18.2974 23.4831 18.4303C23.7489 18.7405 23.8375 19.1835 23.6603 19.4936ZM24.2805 16.9683C24.0147 16.924 23.7932 16.7911 23.5274 16.6582C21.9767 15.8607 20.3818 15.4177 18.6539 15.1962C16.3502 14.9303 14.0464 15.019 11.7869 15.5063C11.5653 15.5506 11.2995 15.5949 11.078 15.5949C10.5021 15.5949 10.1033 15.2848 10.0147 14.7531C9.9261 14.3101 10.1476 13.8228 10.635 13.6012C10.8122 13.5126 11.0337 13.4683 11.2109 13.424C12.7615 13.0253 14.3565 12.8924 15.9514 12.8924C17.7236 12.8481 19.4957 13.0253 21.2236 13.4683C22.4198 13.7785 23.5717 14.2215 24.6793 14.8417C24.9008 14.9747 25.078 15.1076 25.2552 15.2405C25.5653 15.5506 25.6096 16.0822 25.4324 16.481C25.1666 16.8354 24.6793 17.0569 24.2805 16.9683Z" fill="white"/>
</g>
<g id="Group 1000003075">
<path id="XMLID_22__2" d="M17.5 90C27.165 90 35 82.165 35 72.5C35 62.835 27.165 55 17.5 55C7.83502 55 0 62.835 0 72.5C0 82.165 7.83502 90 17.5 90Z" fill="#C3271A"/>
<path id="XMLID_20_" d="M27.9032 69.1928C27.7742 67.2449 26.0538 65.7029 23.9462 65.5406C23.6452 65.5 23.3011 65.5 23 65.5C19.3011 65.5 15.6021 65.5 11.9032 65.5C11.6021 65.5 11.3441 65.5 11.043 65.5406C9.0215 65.6217 7.21505 67.2043 7.04301 69.2333C7.04301 69.4362 7 69.6797 7 69.8826C7 71.6275 7 73.413 7 75.158C7 75.3609 7 75.5232 7.04301 75.7261C7.21505 77.6739 8.76344 79.2159 10.828 79.4594C11.2151 79.5 11.5591 79.5 11.9462 79.5C13.7957 79.5 15.6021 79.5 17.4516 79.5C19.3011 79.5 21.1075 79.5 22.957 79.5C23 79.5 23 79.5 23.043 79.5C23.4301 79.5 23.8602 79.5 24.2473 79.4188C26.2258 79.1348 27.8172 77.6333 27.9032 75.7667C28.0323 73.5348 28.0323 71.3435 27.9032 69.1928ZM20.5914 72.7638C20.4624 72.8449 20.2903 72.9261 20.1183 73.0072C18.5699 73.6971 17.0215 74.387 15.4731 75.1174C14.828 75.4014 14.5699 75.3203 14.6129 74.6304C14.6129 74.2652 14.6129 73.9406 14.6129 73.5754C14.6129 73.2101 14.6129 72.8855 14.6129 72.5203C14.6129 71.7899 14.6129 71.0594 14.6129 70.329C14.6129 70.1667 14.6559 70.0043 14.6559 69.842C14.6989 69.7203 14.7849 69.6797 14.914 69.6797C15.043 69.6797 15.129 69.7203 15.2581 69.7609C16.9785 70.5725 18.6559 71.3841 20.3763 72.1957C20.4624 72.2362 20.5054 72.2768 20.5914 72.3174C20.7634 72.4391 20.7204 72.6826 20.5914 72.7638Z" fill="white"/>
</g>
<g id="Group 1000003076">
<path id="XMLID_22__3" d="M17.5 145C27.165 145 35 137.165 35 127.5C35 117.835 27.165 110 17.5 110C7.83502 110 0 117.835 0 127.5C0 137.165 7.83502 145 17.5 145Z" fill="url(#paint0_radial_21_44)"/>
<g id="XMLID_16__2">
<path id="XMLID_23_" d="M22.9685 120.81C23.7474 120.81 24.2668 121.33 24.2668 122.109C24.2668 122.802 23.6609 123.408 22.9685 123.408C22.276 123.408 21.7134 122.802 21.6702 122.066C21.6269 121.546 22.2327 120.724 22.9685 120.81Z" fill="white"/>
<path id="XMLID_20__2" d="M17.6019 122.153C14.5292 122.109 12.149 124.577 12.149 127.478C12.1057 130.466 14.486 132.891 17.472 132.891C20.4149 132.934 22.8816 130.553 22.8816 127.522C22.8816 124.534 20.5014 122.196 17.6019 122.153ZM17.5586 130.899C15.6977 130.942 14.183 129.427 14.183 127.565C14.183 125.66 15.6112 124.188 17.5153 124.188C19.3762 124.188 20.8909 125.617 20.8909 127.522C20.8476 129.384 19.4195 130.856 17.5586 130.899Z" fill="white"/>
<path id="XMLID_17_" d="M27.9892 123.755C27.9892 123.625 27.9892 123.495 27.9459 123.408C27.9459 123.278 27.9459 123.148 27.9026 123.019C27.9026 122.975 27.9026 122.975 27.9026 122.932C27.8593 122.499 27.8161 122.066 27.6862 121.676C27.5564 121.113 27.4266 120.637 27.2535 120.291C27.2535 120.291 27.2535 120.291 27.2535 120.247L27.2102 120.204C26.864 119.511 26.5178 119.165 26.3879 119.035C25.9985 118.602 25.5657 118.212 25.0464 117.909C24.051 117.346 23.0124 117 21.8439 117C18.9444 117 16.0015 117 13.102 117C12.4096 117 11.7172 117.13 11.068 117.39C8.94745 118.212 7.5626 119.728 7.08655 122.023C7.04328 122.629 7 123.235 7 123.841C7 126.353 7 128.864 7 131.375C7 131.852 7.04328 132.285 7.08655 132.761C7.51932 135.229 8.94745 136.874 11.2844 137.697C12.0201 137.957 12.7558 138 13.4915 138C16.1314 138 18.8145 138 21.4544 138C21.8439 138 22.2767 137.957 22.6662 137.913C24.0943 137.697 25.2628 137.047 26.2581 136.008C27.3833 134.796 27.9459 133.324 27.9459 131.678C28.0325 128.994 27.9892 126.396 27.9892 123.755ZM25.9552 124.318C25.9552 124.621 25.9552 124.88 25.9552 125.184C25.9552 127.305 25.9552 129.384 25.9552 131.505C25.9552 132.285 25.8253 133.064 25.4791 133.757C24.7867 135.099 23.6615 135.792 22.1901 136.008C21.8872 136.052 21.6275 136.052 21.3246 136.052C18.7713 136.052 16.2179 136.052 13.6213 136.052C13.102 136.052 12.5827 136.052 12.0634 135.878C10.3756 135.402 9.20711 133.973 9.07728 132.241C9.034 131.938 9.034 131.678 9.034 131.375C9.034 128.821 9.034 126.266 9.034 123.668C9.034 123.581 9.034 123.495 9.034 123.452C9.034 122.889 9.034 122.326 9.33694 121.849C9.51005 121.59 9.63988 121.287 9.85626 121.07C10.7218 119.858 11.9335 119.295 13.4049 119.208C13.8377 119.208 14.2705 119.208 14.7032 119.208C16.9536 119.208 19.204 119.208 21.4544 119.208C22.6229 119.208 23.6615 119.555 24.5703 120.291C24.6569 120.377 24.7434 120.464 24.7867 120.551C24.83 120.594 24.83 120.637 24.8733 120.68C25.6955 121.763 25.9119 123.322 25.9552 124.318Z" fill="white"/>
</g>
</g>
<g id="Group 1000003077">
<path id="XMLID_22__4" d="M17.5 200C27.165 200 35 192.165 35 182.5C35 172.835 27.165 165 17.5 165C7.83502 165 0 172.835 0 182.5C0 192.165 7.83502 200 17.5 200Z" fill="#3E5C9A"/>
<path id="XMLID_18_" d="M17.536 173.766C19.5165 173.766 21.4609 173.766 23.4414 173.766C23.6934 173.766 23.9095 173.766 24.1615 173.802C25.1698 173.91 25.9979 174.665 26.178 175.673C26.214 175.925 26.25 176.212 26.25 176.464C26.25 180.529 26.25 184.559 26.25 188.624C26.25 188.876 26.214 189.163 26.178 189.415C25.9979 190.351 25.2058 191.07 24.2695 191.214C24.0895 191.25 23.8735 191.25 23.6934 191.25C22.7212 191.25 21.785 191.25 20.8128 191.25C20.7047 191.25 20.5607 191.25 20.4527 191.25C20.2726 191.25 20.1646 191.178 20.1646 190.998C20.1646 190.89 20.1646 190.746 20.1646 190.638C20.1646 189.02 20.1646 187.365 20.1646 185.746C20.1646 185.638 20.1646 185.566 20.1646 185.458C20.2006 185.134 20.2366 185.062 20.5607 185.062C20.9568 185.062 21.3169 185.062 21.713 185.062C21.893 185.062 22.037 185.062 22.2171 185.062C22.5051 185.026 22.6852 184.918 22.7212 184.631C22.8292 184.019 22.9012 183.407 22.9372 182.76C22.9733 182.472 22.7932 182.256 22.4691 182.256C22.001 182.22 21.4969 182.22 21.0288 182.22C20.0926 182.22 20.1646 182.256 20.1646 181.357C20.1646 180.961 20.1286 180.601 20.2006 180.206C20.3086 179.63 20.5247 179.414 21.1008 179.342C21.3529 179.306 21.6409 179.306 21.893 179.306C22.073 179.306 22.2891 179.306 22.4691 179.27C22.6852 179.234 22.8292 179.09 22.8652 178.874C22.9372 178.299 22.9372 177.723 22.8652 177.148C22.8652 177.004 22.7212 176.896 22.5772 176.824C22.5412 176.788 22.4691 176.788 22.4331 176.788C21.5689 176.788 20.7047 176.68 19.8405 176.896C18.5442 177.22 17.7521 178.047 17.5 179.342C17.392 179.774 17.392 180.242 17.392 180.709C17.392 181.105 17.392 181.537 17.392 181.932C17.392 182.112 17.284 182.184 17.1039 182.22C16.8879 182.22 16.6718 182.22 16.4558 182.22C16.2397 182.22 16.0237 182.22 15.8076 182.256C15.5916 182.292 15.4835 182.436 15.4115 182.616C15.3755 182.688 15.3755 182.76 15.3755 182.832C15.3755 183.371 15.3755 183.875 15.3755 184.415C15.3755 184.846 15.5556 185.026 15.9877 185.026C16.2397 185.026 16.4558 185.026 16.7078 185.026C17.356 185.026 17.356 185.026 17.356 185.71C17.356 187.329 17.356 188.912 17.356 190.53C17.356 190.638 17.356 190.71 17.356 190.818C17.356 191.178 17.284 191.214 16.9239 191.214C16.7798 191.214 16.6358 191.214 16.4918 191.214C14.8714 191.214 13.215 191.214 11.5947 191.214C11.4146 191.214 11.1986 191.214 11.0185 191.214C9.75823 191.142 8.82202 190.243 8.75 188.948C8.75 188.768 8.75 188.552 8.75 188.372C8.75 184.451 8.75 180.493 8.75 176.572C8.75 176.176 8.75 175.817 8.85803 175.421C9.14609 174.485 9.90226 173.838 10.9105 173.766C11.1626 173.73 11.3786 173.766 11.6307 173.766C13.5751 173.766 15.5556 173.766 17.536 173.766Z" fill="white"/>
</g>
<g id="Group 1000003078">
<path id="XMLID_22__5" d="M17.5 255C27.165 255 35 247.165 35 237.5C35 227.835 27.165 220 17.5 220C7.83502 220 0 227.835 0 237.5C0 247.165 7.83502 255 17.5 255Z" fill="#29A9E1"/>
<path id="XMLID_15_" d="M7.875 243.608C9.63194 244.76 11.6944 245.375 13.9097 245.375C21.2431 245.375 25.4444 239.152 25.1389 233.543C25.9028 233.005 26.5903 232.314 27.125 231.469C26.4375 231.776 25.6736 232.007 24.8333 232.084C25.6736 231.623 26.2847 230.777 26.5903 229.855C25.8264 230.316 24.9861 230.624 24.0694 230.854C23.3819 230.086 22.3889 229.625 21.2431 229.625C18.7222 229.625 16.8125 232.007 17.4236 234.542C14.0625 234.312 11.1597 232.775 9.25 230.316C8.18056 232.16 8.71528 234.465 10.4722 235.695C9.78472 235.618 9.17361 235.464 8.63889 235.157C8.63889 237.001 9.9375 238.768 11.8472 239.152C11.3125 239.305 10.7014 239.305 10.0903 239.229C10.625 240.842 12.0764 241.995 13.7569 241.995C12.0764 243.301 10.0139 243.838 7.875 243.608Z" fill="white"/>
</g>
</g>
<defs>
<radialGradient id="paint0_radial_21_44" cx="0" cy="0" r="1" gradientUnits="userSpaceOnUse" gradientTransform="translate(-0.87441 145.136) scale(64.6121 64.7484)">
<stop stop-color="#F5EC53"/>
<stop offset="0.2412" stop-color="#E48244"/>
<stop offset="0.3974" stop-color="#D15767"/>
<stop offset="0.4888" stop-color="#C84278"/>
<stop offset="1" stop-color="#192CFA"/>
</radialGradient>
</defs>
</svg>
