<svg width="40" height="40" viewBox="0 0 40 40" fill="none" xmlns="http://www.w3.org/2000/svg">
<g id="Group 1000003074">
<path id="XMLID_22_" d="M20 40C31.0457 40 40 31.0457 40 20C40 8.9543 31.0457 0 20 0C8.9543 0 0 8.9543 0 20C0 31.0457 8.9543 40 20 40Z" fill="#1EC85A"/>
<path id="XMLID_16_" d="M20.1534 7.79785C13.3686 7.79785 7.84961 13.1649 7.84961 20.051C7.84961 27.1903 13.6218 32.3548 20.1028 32.4054C26.8876 32.4054 32.3559 26.8865 32.4066 20.1523C32.4066 13.5194 27.1407 7.79785 20.1534 7.79785ZM25.4699 25.57C25.2673 25.9751 24.8116 26.127 24.3559 25.9244C24.2547 25.8738 24.1028 25.8232 24.0015 25.7725C21.6218 24.608 19.0395 24.3042 16.4066 24.608C15.8496 24.6586 15.3433 24.7599 14.837 24.8611C14.5838 24.9118 14.3813 24.9118 14.1281 24.9118C13.7737 24.9118 13.4699 24.6586 13.4192 24.3042C13.318 23.9497 13.4699 23.5447 13.8243 23.3928C14.0775 23.2915 14.3306 23.1903 14.5838 23.1396C15.6977 22.8865 16.8623 22.8358 17.8749 22.7852C19.5458 22.8358 21.1154 22.9371 22.6344 23.4434C23.3939 23.6966 24.1534 24.051 24.8623 24.3548C24.9129 24.4054 24.9635 24.4054 25.0142 24.4561C25.5205 24.7599 25.6724 25.1649 25.4699 25.57ZM27.0395 22.2789C26.837 22.6839 26.3306 22.9371 25.8243 22.7852C25.6218 22.7346 25.3686 22.6333 25.1661 22.4814C23.242 21.5194 21.1661 21.1143 19.0395 21.013C17.4699 20.9624 15.8496 21.1143 14.3306 21.4181C14.0775 21.4687 13.8749 21.5194 13.6218 21.5194C13.1661 21.5194 12.761 21.1649 12.7104 20.7599C12.6091 20.3042 12.8116 19.8991 13.2673 19.646C13.4699 19.5447 13.723 19.4941 13.9256 19.4434C15.3939 19.1396 16.8623 18.9371 18.5838 18.9877C19.8496 18.9371 21.318 19.089 22.7863 19.4434C23.9509 19.6966 25.0648 20.1016 26.1281 20.6586C26.3813 20.7599 26.5838 20.9118 26.837 21.0637C27.1407 21.4181 27.242 21.9244 27.0395 22.2789ZM27.7483 19.3928C27.4445 19.3422 27.1914 19.1903 26.8876 19.0384C25.1154 18.127 23.2926 17.6206 21.318 17.3675C18.6851 17.0637 16.0521 17.1649 13.4699 17.7219C13.2167 17.7725 12.9129 17.8232 12.6597 17.8232C12.0015 17.8232 11.5458 17.4687 11.4445 16.8611C11.3433 16.3548 11.5964 15.7979 12.1534 15.5447C12.3559 15.4434 12.6091 15.3928 12.8116 15.3422C14.5838 14.8865 16.4066 14.7346 18.2294 14.7346C20.2547 14.6839 22.28 14.8865 24.2547 15.3928C25.6218 15.7472 26.9382 16.2535 28.204 16.9624C28.4572 17.1143 28.6597 17.2662 28.8623 17.4181C29.2167 17.7725 29.2673 18.3801 29.0648 18.8358C28.761 19.2409 28.204 19.4941 27.7483 19.3928Z" fill="white"/>
</g>
</svg>
