<svg width="245" height="80" viewBox="0 0 245 80" fill="none" xmlns="http://www.w3.org/2000/svg">
<g id="Subtract" filter="url(#filter0_b_1_1427)">
<mask id="path-1-inside-1_1_1427" fill="white">
<path fill-rule="evenodd" clip-rule="evenodd" d="M245 25.4952C245 25.2206 244.775 25 244.5 25C231.247 25 220.355 14.8891 219.117 1.95994C219.013 0.875319 218.132 0 217.043 0H2C0.895431 0 0 0.895429 0 2V78C0 79.1046 0.895432 80 2 80H243C244.105 80 245 79.1046 245 78V25.4952Z"/>
</mask>
<path fill-rule="evenodd" clip-rule="evenodd" d="M245 25.4952C245 25.2206 244.775 25 244.5 25C231.247 25 220.355 14.8891 219.117 1.95994C219.013 0.875319 218.132 0 217.043 0H2C0.895431 0 0 0.895429 0 2V78C0 79.1046 0.895432 80 2 80H243C244.105 80 245 79.1046 245 78V25.4952Z" fill="#D9D9D9" fill-opacity="0.1"/>
<path d="M219.117 1.95994L220.113 1.86466L219.117 1.95994ZM244.5 24C231.767 24 221.301 14.2857 220.113 1.86466L218.122 2.05523C219.408 15.4924 230.726 26 244.5 26V24ZM2 1H217.043V-1H2V1ZM1 78V2H-1V78H1ZM243 79H2V81H243V79ZM244 25.4952V78H246V25.4952H244ZM-1 78C-1 79.6569 0.343149 81 2 81V79C1.44772 79 1 78.5523 1 78H-1ZM2 -1C0.343147 -1 -1 0.343143 -1 2H1C1 1.44771 1.44771 1 2 1V-1ZM220.113 1.86466C219.964 0.316188 218.696 -1 217.043 -1V1C217.569 1 218.062 1.43445 218.122 2.05523L220.113 1.86466ZM243 81C244.657 81 246 79.6569 246 78H244C244 78.5523 243.552 79 243 79V81ZM244.5 26C244.235 26 244 25.7854 244 25.4952H246C246 24.6559 245.314 24 244.5 24V26Z" fill="#ECEEF3" fill-opacity="0.2" mask="url(#path-1-inside-1_1_1427)"/>
</g>
<defs>
<filter id="filter0_b_1_1427" x="-43" y="-43" width="331" height="166" filterUnits="userSpaceOnUse" color-interpolation-filters="sRGB">
<feFlood flood-opacity="0" result="BackgroundImageFix"/>
<feGaussianBlur in="BackgroundImageFix" stdDeviation="21.5"/>
<feComposite in2="SourceAlpha" operator="in" result="effect1_backgroundBlur_1_1427"/>
<feBlend mode="normal" in="SourceGraphic" in2="effect1_backgroundBlur_1_1427" result="shape"/>
</filter>
</defs>
</svg>
