<svg width="505" height="247" viewBox="0 0 505 247" fill="none" xmlns="http://www.w3.org/2000/svg">
<path fill-rule="evenodd" clip-rule="evenodd" d="M250.32 27.5317C249.881 19.9467 244.685 12.5819 237.097 12.1843L17.8343 0.693186C14.5251 0.51976 11.7018 3.06178 11.5282 6.37094L0.59822 214.773C0.424665 218.082 2.96658 220.905 6.27575 221.079L497.5 246.823C500.809 246.996 503.633 244.454 503.806 241.145L504.901 220.282C504.912 220.059 504.416 220.054 504.195 220.079C499.696 220.579 427.71 211.583 408.214 144.619C396.717 105.131 384.526 103.873 361.491 101.496C345.463 99.8421 324.184 97.6464 294.238 81.6526C262.101 64.4895 251.307 44.6218 250.32 27.5317Z" fill="#0D0D0D"/>
</svg>
