<svg width="40" height="40" viewBox="0 0 40 40" fill="none" xmlns="http://www.w3.org/2000/svg">
<g id="Group 1000003078">
<path id="XMLID_22_" d="M20 40C31.0457 40 40 31.0457 40 20C40 8.9543 31.0457 0 20 0C8.9543 0 0 8.9543 0 20C0 31.0457 8.9543 40 20 40Z" fill="#29A9E1"/>
<path id="XMLID_15_" d="M9 26.9805C11.0079 28.2976 13.3651 29 15.8968 29C24.2778 29 29.0794 21.8878 28.7302 15.478C29.6032 14.8634 30.3889 14.0732 31 13.1073C30.2143 13.4585 29.3413 13.722 28.381 13.8098C29.3413 13.2829 30.0397 12.3171 30.3889 11.2634C29.5159 11.7902 28.5556 12.1415 27.5079 12.4049C26.7222 11.5268 25.5873 11 24.2778 11C21.3968 11 19.2143 13.722 19.9127 16.6195C16.0714 16.3561 12.754 14.6 10.5714 11.7902C9.34921 13.8976 9.96032 16.5317 11.9683 17.9366C11.1825 17.8488 10.4841 17.6732 9.87302 17.322C9.87302 19.4293 11.3571 21.4488 13.5397 21.8878C12.9286 22.0634 12.2302 22.0634 11.5317 21.9756C12.1429 23.8195 13.8016 25.1366 15.7222 25.1366C13.8016 26.6293 11.4444 27.2439 9 26.9805Z" fill="white"/>
</g>
</svg>
