<svg xmlns="http://www.w3.org/2000/svg" width="267" height="274" viewBox="0 0 267 274" fill="none">
  <g filter="url(#filter0_bii_14_1410)">
    <mask id="path-1-inside-1_14_1410" fill="white">
      <path fill-rule="evenodd" clip-rule="evenodd" d="M228.827 41.9177C231.513 51.6132 238.915 60.3777 248.959 60.9673L-nan -nanL248.959 60.9673C258.916 61.5519 266.58 69.9527 266.182 79.919C263.242 153.563 257.695 272.651 254.38 273.019C249.88 273.519 177.88 264.519 158.38 197.519C146.882 158.011 134.688 156.752 111.648 154.373C95.6167 152.719 74.3343 150.522 44.3814 134.519C-0.233119 110.684 -3.72224 81.6355 3.06117 62.0416C6.61119 51.7874 17.7853 47.3954 28.6181 48.0314L90.0708 51.6392C105.523 52.5464 118.311 40.0521 126.55 26.9476L-nan -nanL126.55 26.9476C143.159 0.530772 178.038 -7.42041 204.455 9.18816C216.864 16.99 225.199 28.8236 228.827 41.9177Z"/>
    </mask>
    <path fill-rule="evenodd" clip-rule="evenodd" d="M228.827 41.9177C231.513 51.6132 238.915 60.3777 248.959 60.9673L-nan -nanL248.959 60.9673C258.916 61.5519 266.58 69.9527 266.182 79.919C263.242 153.563 257.695 272.651 254.38 273.019C249.88 273.519 177.88 264.519 158.38 197.519C146.882 158.011 134.688 156.752 111.648 154.373C95.6167 152.719 74.3343 150.522 44.3814 134.519C-0.233119 110.684 -3.72224 81.6355 3.06117 62.0416C6.61119 51.7874 17.7853 47.3954 28.6181 48.0314L90.0708 51.6392C105.523 52.5464 118.311 40.0521 126.55 26.9476L-nan -nanL126.55 26.9476C143.159 0.530772 178.038 -7.42041 204.455 9.18816C216.864 16.99 225.199 28.8236 228.827 41.9177Z" fill="#ECEEF3" fill-opacity="0.1"/>
    <path d="M254.38 273.019L254.27 272.026L254.38 273.019ZM158.38 197.519L159.341 197.24L158.38 197.519ZM111.648 154.373L111.751 153.379L111.648 154.373ZM44.3814 134.519L44.8526 133.637L44.3814 134.519ZM204.455 9.18816L203.922 10.0347L204.455 9.18816ZM90.0708 51.6392L90.1294 50.6409L90.0708 51.6392ZM28.6181 48.0314L28.5594 49.0297L28.6181 48.0314ZM266.182 79.919L267.182 79.9588L266.182 79.919ZM228.827 41.9177L227.863 42.1847L228.827 41.9177ZM265.183 79.8791C263.713 116.699 261.592 164.876 259.423 203.892C258.339 223.402 257.244 240.612 256.213 252.965C255.697 259.144 255.199 264.092 254.728 267.5C254.492 269.209 254.267 270.502 254.056 271.361C253.949 271.797 253.856 272.076 253.786 272.23C253.75 272.31 253.741 272.309 253.771 272.274C253.789 272.252 253.95 272.061 254.27 272.026L254.491 274.013C254.914 273.966 255.18 273.706 255.304 273.558C255.44 273.396 255.537 273.213 255.609 273.054C255.755 272.732 255.882 272.312 255.998 271.838C256.234 270.876 256.471 269.5 256.709 267.774C257.188 264.311 257.69 259.319 258.206 253.132C259.239 240.75 260.336 223.517 261.42 204.003C263.589 164.972 265.712 116.783 267.182 79.9588L265.183 79.8791ZM254.27 272.026C254.088 272.046 253.623 272.047 252.845 271.992C252.091 271.939 251.099 271.838 249.897 271.676C247.493 271.351 244.268 270.785 240.455 269.882C232.828 268.076 222.872 264.928 212.455 259.689C191.625 249.212 168.992 230.4 159.341 197.24L157.42 197.799C167.269 231.639 190.386 250.827 211.556 261.475C222.139 266.798 232.246 269.994 239.994 271.828C243.868 272.746 247.158 273.324 249.629 273.658C250.865 273.825 251.9 273.931 252.705 273.988C253.486 274.042 254.111 274.056 254.491 274.013L254.27 272.026ZM159.341 197.24C153.578 177.44 147.58 166.978 139.944 161.224C132.315 155.475 123.203 154.561 111.751 153.379L111.545 155.368C123.133 156.564 131.637 157.469 138.74 162.821C145.835 168.168 151.684 178.089 157.42 197.799L159.341 197.24ZM111.751 153.379C95.7676 151.729 74.6365 149.549 44.8526 133.637L43.9102 135.401C74.0322 151.494 95.4658 153.708 111.545 155.368L111.751 153.379ZM44.8526 133.637C22.681 121.792 10.8482 108.717 5.36192 96.2863C-0.12101 83.8634 0.682904 71.968 4.00614 62.3688L2.1162 61.7145C-1.34397 71.7092 -2.1872 84.1351 3.5322 97.0939C9.24825 110.045 21.4672 123.411 43.9102 135.401L44.8526 133.637ZM28.5594 49.0297L90.0122 52.6375L90.1294 50.6409L28.6767 47.0331L28.5594 49.0297ZM127.397 27.4799C143.711 1.53058 177.973 -6.27987 203.922 10.0347L204.987 8.34158C178.103 -8.56095 142.606 -0.46904 125.704 26.4154L127.397 27.4799ZM203.922 10.0347C216.113 17.6989 224.299 29.3214 227.863 42.1847L229.79 41.6507C226.098 28.3258 217.615 16.2812 204.987 8.34158L203.922 10.0347ZM90.0122 52.6375C106.054 53.5793 119.125 40.6375 127.397 27.4799L125.704 26.4154C117.498 39.4667 104.993 51.5135 90.1294 50.6409L90.0122 52.6375ZM4.00614 62.3688C7.34708 52.7185 17.9485 48.4067 28.5594 49.0297L28.6767 47.0331C17.6222 46.3841 5.8753 50.8563 2.1162 61.7145L4.00614 62.3688ZM248.9 61.9656C258.317 62.5184 265.559 70.4613 265.183 79.8791L267.182 79.9588C267.601 69.444 259.515 60.5853 249.018 59.969L248.9 61.9656ZM249.018 59.969C239.568 59.4143 232.415 51.1223 229.79 41.6507L227.863 42.1847C230.612 52.1041 238.263 61.3411 248.9 61.9656L249.018 59.969Z" fill="url(#paint0_linear_14_1410)" mask="url(#path-1-inside-1_14_1410)"/>
  </g>
  <defs>
    <filter id="filter0_bii_14_1410" x="-14.6882" y="-14.554" width="295.952" height="302.659" filterUnits="userSpaceOnUse" color-interpolation-filters="sRGB">
      <feFlood flood-opacity="0" result="BackgroundImageFix"/>
      <feGaussianBlur in="BackgroundImageFix" stdDeviation="7.53333"/>
      <feComposite in2="SourceAlpha" operator="in" result="effect1_backgroundBlur_14_1410"/>
      <feBlend mode="normal" in="SourceGraphic" in2="effect1_backgroundBlur_14_1410" result="shape"/>
      <feColorMatrix in="SourceAlpha" type="matrix" values="0 0 0 0 0 0 0 0 0 0 0 0 0 0 0 0 0 0 127 0" result="hardAlpha"/>
      <feOffset dx="-7.53333" dy="7.53333"/>
      <feGaussianBlur stdDeviation="3.76667"/>
      <feComposite in2="hardAlpha" operator="arithmetic" k2="-1" k3="1"/>
      <feColorMatrix type="matrix" values="0 0 0 0 1 0 0 0 0 1 0 0 0 0 1 0 0 0 0.1 0"/>
      <feBlend mode="normal" in2="shape" result="effect2_innerShadow_14_1410"/>
      <feColorMatrix in="SourceAlpha" type="matrix" values="0 0 0 0 0 0 0 0 0 0 0 0 0 0 0 0 0 0 127 0" result="hardAlpha"/>
      <feOffset dx="7.53333" dy="-7.53333"/>
      <feGaussianBlur stdDeviation="3.76667"/>
      <feComposite in2="hardAlpha" operator="arithmetic" k2="-1" k3="1"/>
      <feColorMatrix type="matrix" values="0 0 0 0 0.76 0 0 0 0 0.76 0 0 0 0 0.76 0 0 0 0.1 0"/>
      <feBlend mode="normal" in2="effect2_innerShadow_14_1410" result="effect3_innerShadow_14_1410"/>
    </filter>
    <linearGradient id="paint0_linear_14_1410" x1="256.273" y1="9.40821" x2="56.273" y2="200.408" gradientUnits="userSpaceOnUse">
      <stop stop-color="#E1E1E1"/>
      <stop offset="0.244792" stop-color="#DDDDDD" stop-opacity="0.15"/>
      <stop offset="0.473958" stop-color="#D7D7D7" stop-opacity="0"/>
      <stop offset="0.71875" stop-color="#CECECE" stop-opacity="0.38"/>
      <stop offset="1" stop-color="white" stop-opacity="0.63"/>
    </linearGradient>
  </defs>
</svg>