<svg width="59" height="59" viewBox="0 0 59 59" fill="none" xmlns="http://www.w3.org/2000/svg">
<g id="icon" style="mix-blend-mode:overlay">
<path id="Vector 166 (Stroke)" fill-rule="evenodd" clip-rule="evenodd" d="M18.898 37.3406C18.0156 36.7228 17.8011 35.5065 18.419 34.6241L26.6291 22.8988C26.9258 22.4751 27.3787 22.1865 27.8882 22.0967C28.3976 22.0069 28.9219 22.1231 29.3456 22.4198L41.0709 30.63C41.9533 31.2478 42.1678 32.4641 41.5499 33.3465C40.9321 34.2289 39.7158 34.4433 38.8334 33.8255L28.7059 26.7341L21.6145 36.8616C20.9966 37.7441 19.7804 37.9585 18.898 37.3406Z" fill="#95FF7A"/>
<path id="Ellipse 99 (Stroke)" fill-rule="evenodd" clip-rule="evenodd" d="M8.24527 33.1004C10.3029 44.7699 21.431 52.5618 33.1005 50.5042C44.77 48.4466 52.5619 37.3185 50.5042 25.649C48.4466 13.9795 37.3186 6.18757 25.6491 8.24522C13.9796 10.3029 6.18762 21.4309 8.24527 33.1004ZM33.7779 54.3459C19.9866 56.7777 6.83531 47.569 4.40354 33.7778C1.97178 19.9866 11.1804 6.83526 24.9717 4.40349C38.7629 1.97173 51.9142 11.1804 54.346 24.9716C56.7777 38.7628 47.5691 51.9142 33.7779 54.3459Z" fill="white"/>
</g>
</svg>
