<svg width="120" height="120" viewBox="0 0 120 120" fill="none" xmlns="http://www.w3.org/2000/svg">
<g id="Group 1883">
<circle id="Ellipse 1" opacity="0.3" cx="60" cy="60" r="60" fill="#FFB800"/>
<circle id="Ellipse 2" cx="60" cy="60" r="45" fill="#FFB800"/>
<path id="Vector" d="M68.305 55.9623L58.051 48.9662C57.2501 48.4205 56.3025 48.0919 55.3131 48.0166C54.3238 47.9414 53.3314 48.1225 52.4459 48.54C51.5604 48.9574 50.8164 49.5949 50.2965 50.3816C49.7765 51.1684 49.5008 52.0738 49.5 52.9974V66.9967C49.4985 67.9212 49.7727 68.828 50.2922 69.6162C50.8116 70.4043 51.556 71.0428 52.4423 71.4607C53.3287 71.8785 54.3223 72.0593 55.3125 71.9829C56.3027 71.9065 57.2508 71.5759 58.051 71.0279L68.305 64.0318C68.9853 63.5672 69.5386 62.9601 69.9199 62.2596C70.3013 61.5591 70.5 60.7848 70.5 59.9996C70.5 59.2143 70.3013 58.4401 69.9199 57.7396C69.5386 57.0391 68.9853 56.4319 68.305 55.9673V55.9623Z" fill="white"/>
</g>
</svg>
