<svg width="40" height="40" viewBox="0 0 40 40" fill="none" xmlns="http://www.w3.org/2000/svg">
<g id="Group 1000003075">
<path id="XMLID_22_" d="M20 40C31.0457 40 40 31.0457 40 20C40 8.9543 31.0457 0 20 0C8.9543 0 0 8.9543 0 20C0 31.0457 8.9543 40 20 40Z" fill="#C3271A"/>
<path id="XMLID_20_" d="M31.8894 16.2203C31.7419 13.9942 29.7757 12.2319 27.3671 12.0464C27.023 12 26.6298 12 26.2857 12C22.0584 12 17.831 12 13.6037 12C13.2596 12 12.9647 12 12.6206 12.0464C10.3103 12.1391 8.24577 13.9478 8.04915 16.2667C8.04915 16.4986 8 16.7768 8 17.0087C8 19.0029 8 21.0435 8 23.0377C8 23.2696 8 23.4551 8.04915 23.687C8.24577 25.913 10.0154 27.6754 12.3748 27.9536C12.8172 28 13.2104 28 13.6528 28C15.7665 28 17.831 28 19.9447 28C22.0584 28 24.1229 28 26.2366 28C26.2857 28 26.2857 28 26.3349 28C26.7773 28 27.2688 28 27.7112 27.9072C29.9723 27.5826 31.7911 25.8667 31.8894 23.7333C32.0369 21.1826 32.0369 18.6783 31.8894 16.2203ZM23.533 20.3014C23.3856 20.3942 23.1889 20.487 22.9923 20.5797C21.2227 21.3681 19.4531 22.1565 17.6836 22.9913C16.9462 23.3159 16.6513 23.2232 16.7005 22.4348C16.7005 22.0174 16.7005 21.6464 16.7005 21.229C16.7005 20.8116 16.7005 20.4406 16.7005 20.0232C16.7005 19.1884 16.7005 18.3536 16.7005 17.5188C16.7005 17.3333 16.7496 17.1478 16.7496 16.9623C16.7988 16.8232 16.8971 16.7768 17.0445 16.7768C17.192 16.7768 17.2903 16.8232 17.4378 16.8696C19.404 17.7971 21.321 18.7246 23.2872 19.6522C23.3856 19.6986 23.4347 19.7449 23.533 19.7913C23.7296 19.9304 23.6805 20.2087 23.533 20.3014Z" fill="white"/>
</g>
</svg>
